<svg id="svg" version="1.1" xmlns="http://www.w3.org/2000/svg" xmlns:xlink="http://www.w3.org/1999/xlink" width="400" height="130.73170731707316" viewBox="0, 0, 400,130.73170731707316"><g id="svgg"><path id="path0" d="M20.375 66.292 L 20.417 96.583 54.625 96.625 L 88.833 96.667 88.833 96.168 C 88.833 95.846,88.713 95.595,88.493 95.460 C 87.591 94.904,87.191 93.516,86.908 89.958 C 86.812 88.751,86.780 88.667,86.421 88.667 C 85.819 88.667,85.343 88.155,85.121 87.270 C 84.944 86.565,84.842 86.433,84.349 86.270 C 83.766 86.078,83.701 86.002,83.252 84.987 C 83.090 84.618,82.778 84.289,82.438 84.127 C 82.113 83.972,81.797 83.648,81.669 83.339 C 81.520 82.980,81.196 82.685,80.643 82.404 C 80.065 82.112,79.750 81.817,79.541 81.374 C 79.373 81.016,79.109 80.732,78.916 80.701 C 78.044 80.562,77.680 80.290,77.453 79.608 C 77.235 78.954,77.179 78.911,76.421 78.802 C 75.048 78.606,73.833 77.944,73.833 77.393 C 73.833 77.077,73.367 76.890,72.323 76.788 C 70.956 76.654,70.199 76.286,69.920 75.617 L 69.685 75.055 67.296 74.871 C 64.525 74.657,64.128 74.537,63.405 73.701 L 62.872 73.083 55.311 73.031 C 46.718 72.972,46.529 72.985,45.880 73.687 C 45.096 74.535,44.644 74.673,42.001 74.871 C 39.624 75.049,39.518 75.073,39.426 75.440 C 39.128 76.627,35.636 77.374,34.711 76.449 C 33.986 75.724,33.950 59.113,34.671 58.245 C 35.390 57.379,37.193 57.627,38.331 58.748 L 39.116 59.521 40.839 59.683 C 42.884 59.875,43.320 60.053,43.710 60.849 L 44.003 61.448 46.626 61.557 C 50.005 61.697,59.326 61.697,62.704 61.557 L 65.325 61.448 65.514 60.875 C 65.763 60.120,66.351 59.885,68.485 59.684 C 70.145 59.528,70.177 59.517,70.796 58.873 C 71.577 58.060,71.878 57.897,72.883 57.746 C 73.630 57.634,74.167 57.325,74.167 57.005 C 74.167 56.764,75.764 55.833,76.181 55.831 C 76.969 55.827,77.333 55.642,77.333 55.249 C 77.333 54.691,77.868 54.127,78.588 53.925 C 79.091 53.784,79.260 53.632,79.410 53.186 C 79.618 52.568,80.213 52.000,80.652 52.000 C 81.013 52.000,81.333 51.679,81.333 51.318 C 81.333 50.879,81.902 50.285,82.520 50.077 C 82.857 49.963,83.104 49.759,83.134 49.569 C 83.296 48.561,83.846 48.000,84.675 48.000 C 84.930 48.000,85.001 47.884,85.003 47.458 C 85.011 45.810,85.718 44.333,86.501 44.333 C 86.892 44.333,87.000 44.008,87.000 42.832 C 87.000 40.373,87.441 38.625,88.312 37.633 C 88.658 37.239,88.833 36.864,88.833 36.520 L 88.833 36.000 54.583 36.000 L 20.332 36.000 20.375 66.292 M168.175 49.764 C 167.909 50.183,167.412 50.768,167.071 51.063 C 166.127 51.879,166.525 53.246,168.023 54.331 C 168.761 54.865,168.957 54.877,170.542 54.478 C 172.529 53.978,172.157 50.766,169.967 49.510 C 168.819 48.851,168.747 48.861,168.175 49.764 M110.417 50.817 C 109.219 50.943,108.406 51.260,107.988 51.765 C 107.857 51.923,107.150 52.329,106.417 52.667 C 104.869 53.380,104.009 54.225,103.385 55.646 C 103.158 56.161,102.795 56.772,102.577 57.002 C 101.626 58.006,101.561 61.214,102.469 62.236 C 102.639 62.427,102.988 62.951,103.244 63.401 C 104.092 64.886,105.305 65.928,106.655 66.330 C 107.318 66.527,108.077 66.889,108.378 67.152 C 109.266 67.924,109.898 68.167,111.033 68.168 C 112.867 68.170,114.165 68.461,115.221 69.108 C 115.755 69.435,116.686 69.864,117.289 70.060 C 118.680 70.513,119.006 70.925,119.122 72.377 C 119.312 74.742,118.823 75.543,116.750 76.264 C 116.017 76.519,115.156 76.901,114.836 77.114 C 114.137 77.579,112.441 77.660,111.907 77.254 C 111.729 77.119,110.946 76.812,110.167 76.572 C 108.042 75.918,107.766 75.751,107.253 74.809 C 106.192 72.860,105.378 72.333,103.429 72.333 C 101.762 72.333,101.499 72.582,101.614 74.055 C 101.753 75.830,102.108 76.805,102.862 77.480 C 103.232 77.812,103.674 78.357,103.845 78.692 C 104.107 79.204,104.348 79.375,105.369 79.775 C 106.081 80.054,106.906 80.538,107.367 80.947 C 108.380 81.846,108.673 81.886,113.615 81.796 C 117.758 81.722,118.214 81.649,119.000 80.933 C 119.229 80.724,119.867 80.308,120.417 80.009 C 121.751 79.281,122.247 78.790,122.953 77.500 C 123.279 76.904,123.742 76.123,123.981 75.764 C 125.520 73.458,123.698 68.040,120.879 66.538 C 120.339 66.250,119.602 65.778,119.241 65.490 C 118.365 64.790,118.145 64.718,115.700 64.325 C 114.087 64.067,113.345 63.859,112.503 63.430 C 111.901 63.123,110.900 62.719,110.279 62.533 C 107.808 61.791,106.941 60.171,107.695 57.704 C 107.884 57.086,108.517 56.701,110.401 56.060 C 111.038 55.844,111.742 55.546,111.967 55.399 C 112.733 54.897,114.213 54.891,114.864 55.388 C 115.174 55.624,115.988 56.045,116.672 56.322 C 117.702 56.738,118.089 57.012,118.917 57.906 L 119.917 58.987 121.083 59.012 C 122.695 59.047,122.613 59.074,123.097 58.342 L 123.533 57.684 123.096 56.384 C 122.591 54.884,121.285 53.321,119.988 52.663 C 119.582 52.457,119.007 52.077,118.711 51.818 C 117.698 50.934,113.790 50.463,110.417 50.817 M331.500 50.773 C 330.133 50.868,329.947 50.936,329.062 51.670 C 328.585 52.066,327.875 52.454,327.341 52.610 C 326.561 52.839,326.237 53.079,325.046 54.313 C 324.284 55.103,323.361 56.050,322.996 56.417 C 322.479 56.936,322.260 57.346,322.004 58.273 C 321.823 58.928,321.437 59.848,321.145 60.318 C 319.778 62.516,319.764 70.137,321.123 72.272 C 321.407 72.718,321.763 73.533,321.913 74.083 C 322.281 75.427,322.486 75.806,323.011 76.116 C 323.255 76.261,323.593 76.612,323.761 76.898 C 324.298 77.809,326.455 79.797,327.044 79.924 C 327.739 80.074,328.709 80.566,329.000 80.917 C 330.089 82.228,337.665 82.264,339.290 80.965 C 339.635 80.690,340.404 80.236,341.000 79.956 C 342.738 79.140,344.450 77.251,345.625 74.854 L 346.553 72.958 346.161 72.663 C 345.564 72.212,344.667 72.000,343.361 72.000 L 342.177 72.000 341.523 72.886 C 341.162 73.374,340.676 73.898,340.442 74.052 C 340.207 74.205,339.825 74.656,339.592 75.053 C 338.305 77.250,330.431 77.019,328.313 74.723 C 327.491 73.831,326.046 71.547,325.947 70.982 C 324.852 64.726,325.767 60.267,328.701 57.563 C 330.129 56.247,332.913 55.773,336.477 56.239 C 338.887 56.554,338.986 56.596,339.597 57.563 C 339.854 57.967,340.277 58.425,340.537 58.579 C 340.798 58.733,341.238 59.260,341.514 59.749 C 342.187 60.942,342.231 60.967,343.687 61.022 C 346.731 61.135,346.918 58.411,344.088 55.189 C 343.714 54.764,343.212 54.150,342.971 53.825 C 342.656 53.399,342.210 53.103,341.378 52.768 C 340.742 52.512,339.904 52.051,339.516 51.744 C 338.502 50.942,335.066 50.525,331.500 50.773 M362.750 50.817 C 361.483 50.947,361.239 51.045,360.282 51.807 C 359.932 52.085,359.167 52.473,358.580 52.668 C 357.725 52.952,357.442 53.139,357.153 53.606 C 356.954 53.927,356.508 54.377,356.161 54.607 C 355.814 54.836,355.438 55.247,355.326 55.519 C 355.213 55.791,354.791 56.295,354.389 56.639 C 353.686 57.240,353.641 57.334,353.249 59.070 C 352.977 60.276,352.676 61.133,352.343 61.651 C 351.619 62.781,351.458 63.809,351.525 66.889 L 351.584 69.583 352.211 70.699 C 352.617 71.421,352.961 72.363,353.184 73.366 C 353.607 75.267,353.730 75.533,354.347 75.898 C 354.616 76.057,354.956 76.420,355.104 76.706 C 355.678 77.816,357.866 79.771,358.857 80.059 C 359.362 80.206,360.130 80.596,360.563 80.927 C 361.664 81.768,362.027 81.835,365.416 81.823 C 369.182 81.811,369.768 81.715,370.913 80.927 C 371.413 80.582,372.255 80.126,372.786 79.911 C 373.370 79.675,373.980 79.268,374.333 78.877 C 374.654 78.523,375.202 78.023,375.550 77.768 C 375.950 77.475,376.326 76.982,376.568 76.436 C 376.779 75.959,377.213 75.197,377.532 74.743 C 378.200 73.791,378.435 73.218,378.590 72.167 C 378.650 71.754,378.880 70.483,379.100 69.343 C 379.831 65.554,378.919 59.335,377.339 57.341 C 377.065 56.995,376.691 56.362,376.508 55.936 C 376.289 55.425,375.980 55.045,375.601 54.822 C 375.284 54.635,374.767 54.167,374.452 53.783 C 374.024 53.261,373.636 53.001,372.919 52.758 C 372.391 52.579,371.565 52.150,371.083 51.805 C 369.813 50.895,366.183 50.465,362.750 50.817 M156.426 51.204 C 156.196 51.532,156.167 53.246,156.167 66.341 L 156.167 81.109 156.572 81.490 C 157.136 82.019,159.096 81.945,160.043 81.359 L 160.668 80.972 160.626 66.283 L 160.583 51.594 159.917 51.216 C 158.946 50.667,156.808 50.659,156.426 51.204 M194.750 51.207 L 194.083 51.594 194.000 56.208 C 193.908 61.330,193.947 61.161,192.752 61.483 C 192.122 61.652,192.068 61.636,191.710 61.179 C 191.503 60.914,190.996 60.484,190.583 60.224 C 190.171 59.963,189.834 59.697,189.834 59.632 C 189.833 59.212,188.332 58.689,186.813 58.579 C 184.548 58.416,184.033 58.537,182.940 59.493 C 182.437 59.934,181.625 60.523,181.137 60.803 C 180.309 61.277,180.218 61.394,179.773 62.565 C 179.510 63.254,179.042 64.114,178.733 64.475 C 177.909 65.438,177.797 66.236,177.865 70.707 C 177.927 74.784,178.025 75.358,178.814 76.248 C 178.977 76.432,179.367 77.169,179.681 77.885 C 180.221 79.119,180.300 79.214,181.225 79.709 C 181.762 79.996,182.437 80.460,182.725 80.741 C 183.816 81.800,183.914 81.831,186.130 81.832 C 188.315 81.833,188.989 81.672,189.583 81.006 C 189.766 80.801,190.127 80.523,190.385 80.390 C 190.642 80.257,191.136 79.892,191.482 79.580 C 192.394 78.756,193.664 79.021,193.895 80.083 C 193.974 80.450,194.067 80.848,194.101 80.967 C 194.328 81.766,197.427 82.081,198.453 81.408 L 198.833 81.159 198.833 66.355 L 198.833 51.552 198.483 51.234 C 197.910 50.716,195.627 50.700,194.750 51.207 M205.292 51.298 C 204.796 52.154,204.847 80.760,205.345 81.394 C 205.743 81.899,206.925 81.989,208.761 81.652 C 210.426 81.347,210.333 81.685,210.335 75.933 C 210.338 67.934,209.843 68.516,216.667 68.496 C 219.463 68.487,222.125 68.419,222.583 68.343 C 224.500 68.029,224.573 68.274,224.638 75.250 C 224.706 82.520,224.461 81.912,227.282 81.790 C 229.146 81.710,229.400 81.662,229.763 81.321 L 230.167 80.942 230.167 66.319 L 230.167 51.696 229.654 51.265 C 229.165 50.854,229.048 50.833,227.163 50.833 C 224.454 50.833,224.669 50.325,224.657 56.745 C 224.646 62.533,224.568 63.354,223.983 63.897 L 223.583 64.268 217.555 64.176 C 209.669 64.055,210.335 64.745,210.331 56.696 C 210.329 53.976,210.273 51.667,210.206 51.567 C 209.919 51.137,209.162 50.949,207.425 50.874 L 205.583 50.795 205.292 51.298 M285.286 51.317 C 284.795 52.149,284.852 80.766,285.345 81.394 C 285.768 81.931,287.346 82.009,288.845 81.566 C 290.275 81.144,290.167 81.765,290.167 74.012 C 290.167 65.051,290.156 65.092,292.650 64.032 C 293.164 63.814,293.771 63.594,294.000 63.543 C 294.229 63.492,294.596 63.312,294.814 63.142 C 295.286 62.775,295.883 62.742,296.153 63.067 C 296.259 63.195,296.899 63.573,297.575 63.907 C 300.276 65.242,300.491 66.021,300.496 74.513 L 300.500 81.109 300.886 81.471 C 301.445 81.997,303.305 81.985,304.250 81.450 L 304.917 81.073 304.917 73.911 C 304.917 63.489,304.717 62.479,302.238 60.333 C 300.446 58.782,300.066 58.644,297.488 58.611 L 295.345 58.583 294.390 59.500 C 293.864 60.004,293.052 60.808,292.585 61.286 L 291.735 62.154 291.201 61.830 C 290.907 61.651,290.667 61.383,290.667 61.233 C 290.667 60.985,290.630 60.986,290.236 61.244 C 289.491 61.732,289.336 60.743,289.334 55.489 L 289.333 51.561 288.686 51.197 C 287.618 50.597,285.671 50.666,285.286 51.317 M368.250 56.263 C 369.849 56.378,370.726 56.732,370.919 57.342 C 370.976 57.521,371.299 57.873,371.636 58.125 C 372.487 58.760,372.605 58.935,373.021 60.164 C 373.222 60.758,373.655 61.771,373.982 62.414 L 374.578 63.583 374.581 66.250 C 374.583 68.996,374.486 69.534,373.808 70.521 C 373.642 70.762,373.309 71.572,373.067 72.321 C 372.712 73.423,372.516 73.770,372.042 74.133 C 371.719 74.381,371.334 74.730,371.186 74.908 C 370.118 76.197,369.080 76.501,365.750 76.500 C 362.131 76.500,359.793 75.425,358.784 73.298 C 358.623 72.960,358.317 72.473,358.104 72.216 C 357.191 71.118,356.908 69.257,357.051 65.294 C 357.159 62.324,357.303 61.495,357.822 60.846 C 358.011 60.610,358.360 60.050,358.597 59.603 C 359.953 57.044,362.676 55.785,366.167 56.102 C 366.488 56.132,367.425 56.204,368.250 56.263 M137.250 58.600 C 136.463 58.802,135.881 59.091,135.358 59.540 C 135.051 59.803,134.380 60.205,133.866 60.432 C 132.753 60.924,131.275 62.396,130.786 63.500 C 130.603 63.913,130.215 64.517,129.923 64.843 C 128.548 66.379,128.602 74.676,129.995 75.917 C 130.201 76.100,130.592 76.689,130.863 77.227 C 131.472 78.432,132.311 79.296,133.550 79.996 C 134.073 80.291,134.654 80.748,134.842 81.012 C 135.376 81.762,136.139 81.880,139.942 81.802 L 143.301 81.732 143.996 81.241 C 144.378 80.971,144.916 80.600,145.192 80.417 C 146.473 79.566,147.459 78.672,147.917 77.946 C 148.192 77.510,148.727 76.681,149.105 76.104 C 150.593 73.836,150.695 66.422,149.261 64.707 C 149.051 64.456,148.709 63.916,148.502 63.507 C 148.000 62.518,146.431 60.894,145.500 60.399 C 145.087 60.180,144.478 59.770,144.145 59.487 C 143.305 58.775,138.818 58.197,137.250 58.600 M242.872 58.645 C 242.400 58.730,241.965 58.965,241.576 59.345 C 241.255 59.659,240.453 60.179,239.796 60.500 C 238.779 60.996,238.542 61.196,238.213 61.833 C 238.000 62.246,237.593 62.777,237.307 63.014 L 236.788 63.445 237.151 63.783 C 238.689 65.216,240.198 65.291,241.869 64.018 C 243.609 62.693,243.729 62.641,245.367 62.506 C 249.004 62.205,250.538 63.789,249.679 66.959 C 249.364 68.122,249.140 68.192,245.289 68.329 C 241.889 68.450,241.228 68.567,240.583 69.165 C 240.400 69.335,239.548 69.827,238.689 70.259 C 237.140 71.038,237.125 71.051,236.628 72.114 L 236.127 73.184 236.197 75.800 C 236.276 78.735,236.412 79.211,237.324 79.747 C 237.638 79.932,238.169 80.363,238.502 80.705 C 239.698 81.930,243.939 82.379,245.609 81.458 C 246.958 80.714,247.404 80.406,248.024 79.792 C 248.927 78.895,249.152 79.004,249.906 80.710 C 250.405 81.839,250.611 81.922,252.565 81.784 C 253.971 81.685,254.819 81.455,255.036 81.115 C 255.105 81.006,255.163 77.347,255.164 72.985 C 255.167 64.439,255.137 64.101,254.288 62.975 C 254.056 62.668,253.755 62.148,253.620 61.820 C 253.368 61.210,252.626 60.500,252.240 60.500 C 252.122 60.500,251.668 60.227,251.230 59.893 C 249.688 58.716,245.747 58.127,242.872 58.645 M267.333 58.601 C 266.247 58.735,265.993 58.841,265.348 59.423 C 264.995 59.742,264.144 60.263,263.457 60.581 L 262.209 61.157 261.759 62.370 C 261.072 64.223,260.989 66.503,261.549 68.146 C 262.048 69.609,262.278 69.849,263.555 70.233 C 264.109 70.400,264.791 70.761,265.139 71.072 C 266.074 71.909,266.215 71.946,269.305 72.177 C 272.189 72.392,272.195 72.393,272.639 72.890 C 272.883 73.164,273.440 73.777,273.876 74.253 L 274.669 75.118 274.293 75.590 C 274.086 75.849,273.729 76.400,273.500 76.815 C 272.849 77.992,272.469 78.118,269.904 78.009 C 267.472 77.906,267.666 77.985,265.333 76.151 C 262.971 74.294,260.237 75.619,261.408 78.054 C 262.084 79.459,262.125 79.501,263.195 79.896 C 263.622 80.054,264.297 80.468,264.695 80.816 C 265.858 81.835,265.854 81.834,269.447 81.823 C 273.215 81.812,274.170 81.698,274.802 81.187 C 275.048 80.987,275.580 80.620,275.983 80.370 C 278.733 78.669,279.639 76.939,279.327 73.988 C 279.096 71.801,278.616 71.014,277.051 70.250 C 276.300 69.883,275.550 69.461,275.384 69.312 C 274.735 68.726,274.020 68.528,271.850 68.335 C 268.611 68.046,268.182 67.868,266.129 65.954 C 265.548 65.413,265.583 64.978,266.290 63.949 C 267.080 62.797,267.495 62.617,269.770 62.441 C 272.208 62.252,272.581 62.359,273.386 63.478 C 273.806 64.062,274.171 64.345,274.888 64.641 L 275.834 65.032 276.993 64.680 C 278.735 64.151,279.073 63.488,278.125 62.458 C 277.827 62.134,277.374 61.598,277.118 61.267 C 276.861 60.937,276.357 60.516,275.997 60.332 C 275.637 60.148,275.090 59.777,274.782 59.506 C 273.952 58.777,269.897 58.284,267.333 58.601 M167.583 58.898 C 166.617 59.319,166.661 58.742,166.707 70.352 L 166.750 81.083 167.500 81.451 C 168.518 81.951,170.346 81.977,171.125 81.502 L 171.667 81.172 171.667 70.265 L 171.667 59.358 171.228 59.012 C 170.704 58.600,168.430 58.529,167.583 58.898 M142.120 63.236 C 142.476 63.641,143.048 64.138,143.390 64.340 C 144.183 64.807,144.429 65.304,144.579 66.736 C 144.645 67.369,144.803 68.232,144.931 68.652 C 145.206 69.558,145.232 70.694,144.997 71.501 C 144.903 71.821,144.719 72.796,144.587 73.667 C 144.367 75.126,144.305 75.285,143.799 75.699 C 143.085 76.283,142.505 76.847,142.054 77.393 C 141.647 77.888,140.803 77.958,138.630 77.678 C 137.053 77.475,135.222 75.868,134.628 74.167 C 133.773 71.716,134.205 65.917,135.318 64.913 C 137.708 62.756,137.514 62.855,139.729 62.672 C 140.566 62.604,141.300 62.537,141.361 62.524 C 141.422 62.511,141.763 62.831,142.120 63.236 M191.059 63.604 C 191.505 64.005,191.960 64.333,192.070 64.333 C 192.629 64.333,193.160 65.263,193.340 66.554 C 193.439 67.265,193.628 68.153,193.760 68.528 C 194.070 69.407,194.063 71.055,193.746 71.965 C 193.609 72.359,193.422 73.209,193.330 73.854 C 193.121 75.332,192.996 75.557,192.094 76.086 C 191.691 76.322,191.169 76.767,190.935 77.074 C 189.515 78.936,184.326 76.879,183.462 74.112 C 182.572 71.262,183.066 65.855,184.310 64.825 C 186.867 62.708,189.527 62.227,191.059 63.604 M249.753 72.229 C 250.306 74.092,250.044 75.521,248.948 76.611 C 248.564 76.993,248.119 77.462,247.958 77.653 C 247.499 78.199,242.899 78.173,241.920 77.619 C 240.892 77.036,240.063 75.353,240.441 74.614 C 241.421 72.699,242.090 72.268,244.500 71.999 C 246.814 71.741,247.361 71.606,248.085 71.115 L 248.735 70.673 249.121 71.035 C 249.333 71.234,249.617 71.771,249.753 72.229 " stroke="none" fill="#235498" fill-rule="evenodd"></path><path id="path1" d="M0.000 65.333 L 0.000 130.667 200.000 130.667 L 400.000 130.667 400.000 65.333 L 400.000 0.000 200.000 0.000 L 0.000 0.000 0.000 65.333 M89.701 35.318 L 90.209 35.886 90.094 37.985 C 89.949 40.608,89.628 42.217,89.113 42.895 C 88.895 43.182,88.483 44.170,88.197 45.090 C 87.846 46.223,87.539 46.896,87.246 47.170 C 87.008 47.394,86.589 48.048,86.313 48.625 C 86.038 49.202,85.527 49.954,85.179 50.295 C 84.830 50.637,84.315 51.239,84.034 51.634 C 83.753 52.028,83.278 52.516,82.977 52.719 C 82.676 52.922,82.239 53.369,82.005 53.713 C 81.772 54.057,81.356 54.475,81.082 54.643 C 80.808 54.811,80.208 55.320,79.750 55.775 C 79.292 56.229,78.503 56.837,77.996 57.124 C 77.490 57.412,76.898 57.837,76.680 58.069 C 76.462 58.301,75.879 58.608,75.385 58.752 C 74.881 58.899,74.215 59.256,73.868 59.566 C 73.070 60.279,72.799 60.414,71.496 60.747 C 70.902 60.899,69.929 61.312,69.333 61.667 C 68.650 62.073,67.881 62.374,67.250 62.482 C 64.572 62.941,62.012 63.484,61.363 63.732 C 58.790 64.713,50.200 64.631,47.431 63.598 C 46.332 63.188,45.207 62.951,43.000 62.661 C 41.506 62.465,40.656 62.162,39.620 61.455 C 39.273 61.218,38.455 60.903,37.802 60.754 C 37.150 60.606,36.489 60.417,36.335 60.334 C 35.614 59.948,35.500 60.890,35.500 67.226 C 35.500 74.172,35.627 75.028,36.568 74.411 C 36.783 74.271,37.736 73.965,38.687 73.733 C 39.671 73.492,40.678 73.131,41.024 72.895 C 41.777 72.379,42.955 72.060,44.630 71.918 C 45.338 71.858,46.517 71.740,47.250 71.656 C 53.779 70.905,54.486 70.886,58.927 71.340 C 60.754 71.527,63.038 71.754,64.000 71.844 C 66.173 72.048,67.476 72.370,68.289 72.903 C 68.634 73.130,69.734 73.519,70.733 73.768 C 72.036 74.092,72.695 74.347,73.066 74.670 C 73.688 75.211,74.299 75.529,75.434 75.900 C 75.902 76.052,76.465 76.370,76.684 76.606 C 76.904 76.841,77.571 77.282,78.167 77.585 C 78.762 77.889,79.541 78.447,79.896 78.826 C 80.251 79.205,80.814 79.653,81.146 79.823 C 81.478 79.993,81.997 80.439,82.299 80.815 C 82.601 81.191,83.061 81.609,83.322 81.744 C 83.582 81.879,83.984 82.310,84.215 82.703 C 84.445 83.095,84.866 83.587,85.149 83.796 C 85.432 84.004,85.815 84.471,86.000 84.833 C 86.185 85.195,86.669 85.867,87.077 86.326 C 87.507 86.810,87.900 87.460,88.012 87.872 C 88.346 89.101,88.682 89.905,89.008 90.255 C 90.152 91.485,90.547 96.712,89.555 97.493 C 89.122 97.833,89.114 97.833,54.576 97.833 L 20.030 97.833 19.598 97.321 L 19.167 96.808 19.170 66.279 C 19.174 32.778,19.098 35.403,20.083 34.859 C 20.324 34.727,29.971 34.686,54.805 34.713 L 89.194 34.750 89.701 35.318 M170.137 48.410 C 171.151 48.548,171.571 48.880,172.238 50.073 C 172.559 50.647,172.936 51.211,173.077 51.328 C 173.463 51.649,173.221 52.612,172.284 54.485 C 172.063 54.926,170.981 55.491,170.345 55.496 C 170.123 55.498,169.694 55.589,169.393 55.698 C 168.983 55.846,168.749 55.849,168.464 55.708 C 168.255 55.605,167.641 55.398,167.100 55.248 C 166.002 54.944,165.243 54.312,165.078 53.563 C 165.020 53.299,164.875 52.777,164.756 52.403 C 164.202 50.662,167.071 47.913,169.083 48.256 C 169.267 48.287,169.741 48.356,170.137 48.410 M118.472 50.413 C 119.113 50.611,119.437 50.820,119.633 51.161 C 119.809 51.469,120.228 51.769,120.827 52.017 C 121.976 52.492,123.196 53.710,123.603 54.787 C 123.768 55.225,124.112 55.794,124.366 56.053 C 125.874 57.580,125.061 60.205,122.988 60.505 C 119.420 61.021,117.543 60.342,116.642 58.208 C 116.217 57.202,115.996 57.098,113.742 56.830 C 112.363 56.666,110.508 56.883,109.731 57.299 C 109.184 57.592,108.563 59.443,108.891 59.805 C 109.029 59.958,109.295 60.437,109.480 60.870 C 109.714 61.416,109.934 61.680,110.200 61.733 C 110.411 61.775,111.258 61.935,112.082 62.088 C 113.570 62.364,114.200 62.603,115.000 63.192 C 115.268 63.389,116.058 63.588,117.219 63.750 C 119.105 64.014,119.708 64.234,120.462 64.934 C 120.712 65.166,121.363 65.595,121.909 65.886 C 122.666 66.291,123.010 66.604,123.363 67.210 C 123.618 67.646,124.086 68.232,124.403 68.511 C 125.998 69.911,125.850 76.933,124.207 77.812 C 124.028 77.908,123.664 78.408,123.399 78.924 C 122.969 79.760,122.793 79.925,121.784 80.437 C 121.161 80.753,120.610 81.120,120.560 81.252 C 120.171 82.265,116.345 82.794,110.917 82.584 C 106.879 82.429,105.744 82.164,104.833 81.167 C 104.604 80.916,104.072 80.586,103.650 80.434 C 102.562 80.043,101.648 79.192,101.002 77.971 C 100.695 77.391,100.278 76.692,100.076 76.417 C 98.332 74.047,99.053 72.052,101.786 71.681 C 105.448 71.184,107.200 71.796,107.931 73.827 C 108.532 75.500,111.137 76.216,114.641 75.671 C 116.264 75.418,116.359 75.347,116.730 74.119 C 117.345 72.081,116.783 70.930,114.992 70.559 C 113.713 70.295,112.708 69.868,112.352 69.440 C 112.102 69.138,111.736 69.055,109.667 68.831 C 107.496 68.596,106.500 68.281,105.745 67.589 C 105.396 67.270,104.767 66.891,104.347 66.749 C 103.442 66.441,103.161 66.241,102.754 65.616 C 102.587 65.360,102.238 65.040,101.978 64.905 C 101.446 64.630,101.086 64.021,100.718 62.770 C 100.579 62.301,100.382 61.814,100.280 61.689 C 99.489 60.722,100.723 55.163,101.942 54.199 C 102.255 53.952,102.648 53.520,102.815 53.239 C 103.005 52.919,103.473 52.561,104.066 52.280 C 104.587 52.033,105.265 51.579,105.573 51.271 C 106.155 50.690,107.494 50.255,109.167 50.103 C 111.126 49.926,117.594 50.142,118.472 50.413 M337.611 50.164 C 339.484 50.333,340.275 50.593,340.941 51.260 C 341.186 51.504,341.858 51.916,342.434 52.174 C 343.229 52.531,343.585 52.807,343.907 53.318 C 344.140 53.688,344.546 54.101,344.807 54.236 C 345.129 54.403,345.457 54.847,345.821 55.609 C 346.117 56.228,346.569 56.974,346.825 57.266 C 348.028 58.636,347.874 61.715,346.573 62.308 C 346.067 62.538,342.265 62.568,341.567 62.347 C 341.301 62.263,340.878 62.149,340.627 62.094 C 340.142 61.988,339.171 60.553,339.168 59.937 C 339.167 59.765,338.735 59.194,338.208 58.668 C 337.681 58.143,337.160 57.596,337.049 57.454 C 336.775 57.103,334.722 56.926,332.552 57.066 C 330.479 57.200,330.436 57.215,330.012 57.933 C 329.828 58.246,329.468 58.595,329.213 58.708 C 328.608 58.975,328.379 59.272,328.152 60.082 C 328.049 60.449,327.773 61.086,327.539 61.499 C 326.548 63.246,326.584 63.065,326.585 66.167 C 326.585 69.567,326.656 70.012,327.378 71.090 C 327.674 71.533,328.029 72.235,328.167 72.651 C 328.355 73.221,328.593 73.525,329.137 73.889 C 329.534 74.155,329.940 74.551,330.040 74.770 C 330.343 75.436,332.431 75.765,335.108 75.569 L 336.697 75.452 337.932 74.229 C 338.611 73.557,339.167 72.895,339.167 72.759 C 339.167 72.347,340.301 71.333,340.762 71.333 C 340.992 71.333,341.493 71.174,341.875 70.979 C 342.821 70.496,345.926 70.640,346.717 71.202 C 347.983 72.104,347.976 74.067,346.701 75.519 C 346.422 75.837,346.006 76.520,345.777 77.038 C 345.472 77.727,345.183 78.091,344.694 78.399 C 344.327 78.631,343.982 78.962,343.927 79.134 C 343.769 79.632,343.154 80.114,342.199 80.489 C 341.712 80.680,341.045 81.097,340.716 81.417 C 338.941 83.141,328.165 83.047,326.339 81.291 C 326.125 81.085,325.495 80.691,324.940 80.415 C 324.281 80.087,323.783 79.696,323.506 79.288 C 323.272 78.944,322.846 78.519,322.558 78.344 C 322.270 78.169,321.828 77.647,321.576 77.183 C 321.323 76.719,320.942 76.224,320.729 76.085 C 320.206 75.742,319.906 75.118,319.425 73.379 C 319.203 72.575,318.817 71.429,318.567 70.833 C 317.708 68.783,317.809 63.303,318.743 61.293 C 318.967 60.811,319.345 59.704,319.584 58.833 C 319.939 57.537,320.132 57.129,320.652 56.583 C 321.002 56.217,321.455 55.610,321.659 55.235 C 321.864 54.860,322.244 54.428,322.503 54.274 C 322.763 54.121,323.219 53.689,323.516 53.313 C 323.826 52.922,324.372 52.495,324.795 52.314 C 325.201 52.140,325.836 51.738,326.207 51.421 C 327.669 50.170,332.171 49.673,337.611 50.164 M369.294 50.168 C 371.094 50.358,371.805 50.619,372.680 51.409 C 373.029 51.724,373.605 52.060,373.960 52.156 C 374.605 52.330,375.195 52.832,375.384 53.367 C 375.439 53.524,375.794 53.810,376.173 54.003 C 376.677 54.260,376.947 54.547,377.180 55.074 C 377.355 55.470,377.684 55.916,377.912 56.065 C 378.439 56.410,378.738 56.994,379.150 58.479 C 379.330 59.131,379.705 60.134,379.982 60.708 C 381.168 63.160,381.138 69.623,379.930 72.060 C 379.697 72.531,379.308 73.554,379.067 74.333 C 378.719 75.456,378.498 75.871,378.003 76.333 C 377.659 76.654,377.321 77.104,377.252 77.333 C 377.081 77.904,376.695 78.312,375.982 78.676 C 375.642 78.849,375.293 79.194,375.178 79.471 C 374.983 79.944,374.517 80.254,373.369 80.677 C 373.067 80.788,372.742 81.026,372.646 81.205 C 371.624 83.115,359.563 83.165,358.036 81.265 C 357.878 81.070,357.225 80.682,356.583 80.402 C 355.725 80.029,355.284 79.717,354.917 79.224 C 354.642 78.855,354.184 78.397,353.899 78.207 C 353.614 78.017,353.135 77.424,352.835 76.889 C 352.534 76.354,352.068 75.665,351.800 75.356 C 351.170 74.634,351.040 74.280,350.632 72.167 C 350.447 71.204,350.191 70.214,350.064 69.967 C 349.733 69.321,349.734 63.342,350.066 62.700 C 350.194 62.453,350.422 61.575,350.573 60.750 C 350.960 58.636,351.293 57.712,351.919 57.019 C 352.218 56.688,352.628 56.099,352.830 55.711 C 353.032 55.323,353.550 54.711,353.980 54.350 C 354.410 53.990,354.863 53.506,354.987 53.275 C 355.123 53.020,355.648 52.647,356.314 52.331 C 356.921 52.043,357.642 51.594,357.917 51.333 C 359.141 50.171,364.304 49.643,369.294 50.168 M161.115 50.549 C 162.240 51.147,162.167 50.040,162.167 66.361 L 162.167 81.148 161.789 81.587 C 160.613 82.954,154.793 82.772,153.948 81.342 C 153.541 80.653,153.513 52.115,153.918 51.330 C 154.499 50.207,159.459 49.669,161.115 50.549 M199.347 50.794 L 199.833 51.339 199.831 66.211 C 199.829 77.766,199.782 81.176,199.620 81.500 C 198.808 83.126,192.333 82.743,192.333 81.069 C 192.333 80.719,191.705 80.784,191.507 81.154 C 190.554 82.935,182.346 83.115,180.830 81.388 C 180.563 81.083,180.281 80.833,180.204 80.833 C 179.416 80.833,177.426 78.432,176.990 76.956 C 176.794 76.293,176.493 75.519,176.321 75.237 C 175.108 73.248,175.117 67.746,176.339 65.213 C 176.615 64.640,176.979 63.727,177.149 63.183 C 177.508 62.029,178.882 60.330,179.869 59.819 C 180.210 59.643,180.569 59.349,180.667 59.167 C 181.607 57.410,189.647 57.373,191.293 59.118 C 192.289 60.174,192.333 60.018,192.333 55.453 L 192.333 51.396 192.792 50.957 C 193.526 50.255,193.931 50.173,196.472 50.213 L 198.862 50.250 199.347 50.794 M210.847 50.794 L 211.333 51.339 211.334 56.378 C 211.335 62.215,211.390 62.577,212.294 62.727 C 213.543 62.933,221.752 62.847,222.026 62.625 C 222.985 61.844,223.000 61.752,223.000 56.450 L 223.000 51.535 223.602 51.006 C 225.089 49.701,230.334 49.770,230.840 51.102 C 231.153 51.925,231.046 81.194,230.728 81.647 C 229.836 82.921,225.074 82.886,223.542 81.594 L 223.000 81.137 223.000 76.184 L 223.000 71.231 222.580 70.657 C 221.841 69.648,221.935 69.667,217.690 69.667 C 210.797 69.667,211.334 69.126,211.331 76.067 C 211.328 81.592,211.308 81.718,210.331 82.208 C 209.280 82.735,205.017 82.553,203.452 81.915 C 202.655 81.589,202.667 81.828,202.667 66.184 L 202.667 51.519 203.042 51.085 C 203.649 50.382,204.736 50.181,207.722 50.218 L 210.361 50.250 210.847 50.794 M289.442 50.415 C 290.926 50.856,290.905 50.787,291.000 55.440 C 291.096 60.130,291.157 60.323,292.167 59.161 C 293.155 58.024,296.259 57.547,299.814 57.986 C 301.648 58.212,301.840 58.297,302.841 59.313 C 303.258 59.737,303.794 60.212,304.033 60.370 C 304.318 60.559,304.626 61.074,304.931 61.870 C 305.186 62.537,305.493 63.201,305.613 63.346 C 306.363 64.245,306.500 65.857,306.500 73.762 L 306.500 81.304 306.005 81.720 C 304.773 82.757,299.891 82.774,298.695 81.745 L 298.250 81.363 298.149 74.140 C 298.033 65.874,298.001 65.641,296.901 65.091 C 295.791 64.537,293.801 64.551,292.667 65.122 C 291.181 65.870,291.183 65.862,291.174 74.282 L 291.167 81.315 290.792 81.749 C 289.979 82.691,285.597 82.790,283.452 81.915 C 282.655 81.589,282.667 81.828,282.667 66.184 L 282.667 51.519 283.042 51.085 C 283.778 50.233,287.514 49.842,289.442 50.415 M363.250 57.111 C 361.803 57.286,361.699 57.334,361.375 57.963 C 361.184 58.335,360.798 58.720,360.412 58.923 C 359.891 59.198,359.730 59.404,359.565 60.006 C 359.283 61.042,358.438 63.332,358.155 63.833 C 357.711 64.616,357.843 68.239,358.352 69.250 C 358.583 69.708,359.018 70.837,359.319 71.758 C 359.819 73.285,359.920 73.461,360.470 73.758 C 360.802 73.937,361.249 74.346,361.464 74.667 C 362.276 75.880,368.373 76.020,368.750 74.834 C 368.802 74.671,369.146 74.337,369.515 74.093 C 369.962 73.797,370.296 73.394,370.515 72.883 C 370.695 72.461,371.056 71.874,371.316 71.578 C 372.647 70.062,372.596 62.488,371.244 60.977 C 370.945 60.644,370.654 60.153,370.595 59.887 C 370.428 59.125,368.445 57.311,367.600 57.147 C 366.924 57.016,364.216 56.993,363.250 57.111 M144.053 58.171 C 144.404 58.273,144.966 58.600,145.303 58.899 C 145.641 59.198,146.331 59.676,146.837 59.962 C 147.854 60.535,148.251 60.923,148.843 61.917 C 149.061 62.283,149.483 62.835,149.780 63.144 C 151.909 65.353,151.819 75.115,149.646 77.579 C 149.336 77.929,148.896 78.557,148.667 78.974 C 148.359 79.533,147.989 79.884,147.258 80.310 C 146.713 80.627,146.094 81.092,145.884 81.342 C 144.359 83.155,134.223 83.131,132.528 81.310 C 132.192 80.949,131.604 80.514,131.222 80.342 C 130.841 80.171,130.392 79.818,130.225 79.557 C 130.059 79.297,129.620 78.783,129.249 78.417 C 128.836 78.008,128.490 77.460,128.354 77.000 C 128.232 76.587,127.884 75.800,127.581 75.250 C 126.335 72.987,126.275 67.375,127.478 65.667 C 127.639 65.438,127.976 64.688,128.227 64.000 C 128.575 63.047,128.869 62.569,129.466 61.989 C 129.897 61.570,130.391 61.019,130.562 60.763 C 130.734 60.508,131.147 60.186,131.479 60.047 C 131.811 59.909,132.395 59.509,132.777 59.158 C 133.539 58.457,134.321 58.180,136.083 57.986 C 137.663 57.813,143.263 57.942,144.053 58.171 M250.783 58.242 C 251.360 58.419,251.785 58.682,252.058 59.031 C 252.283 59.319,252.794 59.711,253.192 59.902 C 253.715 60.153,254.009 60.440,254.250 60.934 C 254.433 61.310,254.793 61.740,255.049 61.889 C 256.074 62.485,256.078 62.524,256.133 72.308 C 256.189 82.218,256.237 81.779,255.046 82.276 C 253.942 82.738,250.228 82.530,249.366 81.958 C 248.545 81.415,248.360 81.400,247.635 81.818 C 245.901 82.819,239.611 82.906,237.522 81.958 C 236.480 81.485,234.445 79.340,234.059 78.307 C 233.381 76.490,233.741 72.532,234.672 71.583 C 234.941 71.308,235.360 70.836,235.602 70.534 C 235.844 70.232,236.351 69.829,236.729 69.637 C 237.107 69.446,237.689 69.045,238.022 68.746 C 238.829 68.022,239.716 67.848,243.581 67.653 C 247.075 67.477,246.934 67.529,247.455 66.230 L 247.797 65.377 247.329 64.575 C 246.554 63.250,245.031 62.825,244.316 63.735 C 244.114 63.991,243.642 64.332,243.266 64.493 C 242.891 64.655,242.243 65.122,241.827 65.532 C 239.520 67.809,234.233 65.556,235.390 62.789 C 235.905 61.555,236.528 60.808,237.644 60.086 C 238.266 59.684,238.881 59.226,239.012 59.067 C 239.959 57.921,247.920 57.363,250.783 58.242 M274.744 58.181 C 275.107 58.284,275.632 58.614,275.910 58.913 C 276.189 59.213,276.658 59.581,276.954 59.731 C 281.236 61.908,280.209 66.333,275.422 66.333 L 274.052 66.333 273.100 65.500 C 272.576 65.042,272.065 64.667,271.964 64.667 C 271.863 64.667,271.462 64.320,271.072 63.896 L 270.364 63.125 269.278 63.241 C 268.265 63.349,268.179 63.391,268.018 63.853 C 267.923 64.125,267.692 64.563,267.505 64.826 L 267.165 65.304 267.791 65.796 C 268.135 66.067,268.745 66.468,269.147 66.686 C 269.548 66.905,270.042 67.175,270.244 67.287 C 270.446 67.400,271.579 67.566,272.764 67.657 C 275.294 67.851,276.274 68.144,276.979 68.919 C 277.262 69.230,277.793 69.574,278.158 69.684 C 278.955 69.923,279.354 70.337,279.735 71.322 C 279.893 71.729,280.200 72.273,280.417 72.531 C 281.132 73.380,281.194 75.535,280.540 76.764 C 280.348 77.123,279.932 77.952,279.614 78.605 C 279.080 79.705,278.959 79.836,278.001 80.346 C 277.431 80.650,276.857 81.064,276.725 81.265 C 275.504 83.128,264.536 83.171,262.353 81.322 C 262.021 81.040,261.292 80.486,260.732 80.089 C 258.658 78.621,258.186 75.895,259.766 74.508 L 260.345 74.000 262.510 74.000 L 264.674 74.000 265.379 74.645 C 265.766 75.000,266.393 75.447,266.771 75.638 C 267.149 75.829,267.609 76.241,267.793 76.552 C 268.274 77.367,271.000 77.615,271.000 76.843 C 271.000 76.753,271.350 76.343,271.779 75.932 C 272.607 75.138,272.608 74.829,271.782 74.567 C 271.587 74.505,270.937 74.128,270.337 73.729 L 269.246 73.004 266.748 72.744 C 264.225 72.481,262.924 72.098,262.716 71.555 C 262.666 71.425,262.316 71.163,261.938 70.973 C 260.723 70.361,259.813 69.497,259.374 68.536 C 258.785 67.251,258.760 63.869,259.330 62.546 C 259.688 61.711,261.416 59.833,261.825 59.833 C 261.925 59.833,262.325 59.547,262.712 59.196 C 263.604 58.390,264.103 58.194,265.754 58.005 C 267.454 57.810,273.877 57.936,274.744 58.181 M171.632 58.179 C 171.915 58.278,172.339 58.611,172.573 58.918 L 173.000 59.478 173.000 70.181 L 173.000 80.885 172.561 81.460 C 171.502 82.849,166.792 82.984,165.471 81.664 L 165.000 81.192 165.005 70.221 C 165.011 58.288,164.952 58.996,166.003 58.355 C 166.664 57.952,170.625 57.828,171.632 58.179 M138.294 64.276 C 137.553 64.503,137.115 64.853,135.947 66.147 C 135.047 67.146,134.835 72.806,135.660 73.818 C 135.854 74.056,136.135 74.438,136.284 74.667 C 137.258 76.161,138.880 76.692,140.526 76.055 C 141.825 75.553,142.041 75.198,143.066 71.885 C 143.673 69.921,142.328 64.667,141.218 64.667 C 141.091 64.667,140.693 64.517,140.333 64.333 C 139.583 63.951,139.377 63.945,138.294 64.276 M187.232 64.500 C 186.025 64.849,185.387 65.236,185.237 65.708 C 185.177 65.897,184.934 66.232,184.697 66.452 C 183.675 67.399,183.750 72.875,184.801 74.072 C 185.094 74.406,185.334 74.769,185.334 74.881 C 185.336 75.119,186.330 75.830,186.677 75.841 C 186.809 75.845,187.216 75.955,187.582 76.085 C 188.836 76.531,190.630 75.674,190.992 74.456 C 191.107 74.068,191.262 73.675,191.336 73.583 C 192.603 72.023,192.568 69.189,191.250 66.597 C 191.021 66.146,190.833 65.689,190.833 65.581 C 190.833 65.257,190.271 64.849,189.488 64.604 C 189.082 64.477,188.637 64.336,188.500 64.289 C 188.362 64.243,187.792 64.338,187.232 64.500 M244.583 72.750 C 244.492 72.781,244.059 72.855,243.622 72.914 C 242.834 73.020,242.822 73.031,242.345 74.085 L 241.863 75.148 242.225 76.032 C 242.776 77.375,242.714 77.333,244.177 77.333 L 245.501 77.333 246.557 76.283 C 247.747 75.098,248.249 73.385,247.554 72.875 C 247.298 72.688,245.042 72.593,244.583 72.750 " stroke="none" fill="#fbfbfb" fill-rule="evenodd"></path><path id="path2" d="M167.917 49.276 C 165.145 50.733,164.983 54.159,167.667 54.579 L 168.417 54.696 167.770 54.151 C 166.481 53.065,166.196 51.775,167.085 51.042 C 167.654 50.573,168.782 48.993,168.538 49.007 C 168.471 49.010,168.192 49.132,167.917 49.276 M107.959 51.071 C 107.615 51.194,106.865 51.596,106.292 51.966 C 105.719 52.336,104.973 52.752,104.633 52.890 C 104.242 53.050,103.793 53.454,103.406 53.992 C 103.071 54.459,102.660 54.914,102.494 55.003 C 101.408 55.584,100.914 60.274,101.665 62.865 C 101.963 63.894,103.913 65.748,105.297 66.318 C 105.929 66.579,106.763 67.021,107.149 67.302 C 107.815 67.783,108.076 67.876,109.375 68.089 L 109.917 68.178 109.417 67.898 C 109.142 67.745,108.674 67.408,108.378 67.151 C 108.078 66.890,107.316 66.527,106.655 66.330 C 105.305 65.928,104.092 64.886,103.244 63.401 C 102.988 62.951,102.639 62.427,102.469 62.236 C 101.561 61.214,101.626 58.006,102.577 57.002 C 102.795 56.772,103.158 56.161,103.385 55.646 C 104.009 54.225,104.869 53.380,106.417 52.667 C 107.150 52.329,107.862 51.917,108.000 51.750 C 108.138 51.583,108.550 51.311,108.917 51.144 C 109.769 50.756,109.004 50.698,107.959 51.071 M155.833 51.029 C 154.561 51.391,154.667 50.007,154.667 66.355 L 154.667 80.992 155.042 81.237 C 155.248 81.371,155.742 81.554,156.141 81.643 L 156.865 81.805 156.516 81.433 C 156.041 80.928,155.955 51.876,156.426 51.204 C 156.711 50.797,156.682 50.788,155.833 51.029 M193.679 51.265 L 193.167 51.696 193.167 55.763 C 193.167 59.384,193.131 59.923,192.843 60.680 L 192.520 61.531 192.968 61.421 C 193.912 61.190,193.910 61.204,194.000 56.208 L 194.083 51.594 194.750 51.216 L 195.417 50.839 194.804 50.836 C 194.386 50.834,194.030 50.970,193.679 51.265 M204.535 51.249 L 203.667 51.651 203.667 66.320 C 203.667 82.932,203.501 81.054,205.017 81.589 L 205.684 81.825 205.342 81.390 C 204.867 80.786,204.795 52.033,205.267 51.360 C 205.649 50.815,205.516 50.795,204.535 51.249 M284.535 51.249 L 283.667 51.651 283.667 66.320 C 283.667 82.932,283.501 81.054,285.017 81.589 L 285.684 81.825 285.342 81.390 C 284.867 80.786,284.795 52.033,285.267 51.360 C 285.649 50.815,285.516 50.795,284.535 51.249 M329.167 50.988 C 328.508 51.120,327.979 51.379,327.250 51.928 C 326.975 52.135,326.320 52.494,325.793 52.726 C 324.686 53.213,322.830 54.987,322.083 56.272 C 321.823 56.718,321.445 57.308,321.242 57.583 C 319.108 60.473,318.829 71.205,320.806 74.327 C 321.070 74.743,321.540 75.488,321.851 75.982 C 322.162 76.477,322.848 77.318,323.375 77.851 C 323.902 78.385,324.333 78.898,324.333 78.992 C 324.333 79.086,324.939 79.468,325.680 79.840 C 326.420 80.212,327.329 80.736,327.699 81.005 C 328.070 81.273,328.645 81.536,328.978 81.589 C 329.311 81.642,329.771 81.719,330.000 81.760 C 330.384 81.829,330.378 81.813,329.917 81.564 C 329.642 81.415,329.229 81.124,329.000 80.916 C 328.484 80.448,327.751 80.076,327.044 79.924 C 326.455 79.797,324.299 77.809,323.761 76.898 C 323.593 76.612,323.255 76.261,323.011 76.116 C 322.486 75.806,322.281 75.427,321.913 74.083 C 321.763 73.533,321.407 72.718,321.123 72.272 C 319.764 70.137,319.778 62.516,321.145 60.318 C 321.437 59.848,321.823 58.928,322.004 58.273 C 322.260 57.346,322.479 56.936,322.996 56.417 C 323.361 56.050,324.284 55.103,325.046 54.313 C 326.242 53.074,326.558 52.840,327.346 52.611 C 327.848 52.465,328.557 52.093,328.921 51.784 C 329.285 51.475,329.733 51.137,329.917 51.033 C 330.295 50.818,330.081 50.805,329.167 50.988 M360.511 51.015 C 360.105 51.094,359.501 51.378,359.169 51.644 C 358.838 51.911,358.045 52.393,357.408 52.715 C 356.125 53.364,353.824 55.703,353.147 57.047 C 352.952 57.434,352.542 58.163,352.236 58.667 C 350.543 61.455,350.542 71.147,352.236 73.986 C 352.541 74.498,352.992 75.274,353.237 75.712 C 354.136 77.309,355.961 79.126,357.407 79.862 C 358.135 80.233,359.000 80.752,359.329 81.016 C 359.726 81.336,360.203 81.532,360.755 81.602 L 361.583 81.708 360.669 81.014 C 360.166 80.632,359.346 80.201,358.847 80.056 C 357.866 79.771,355.674 77.810,355.104 76.706 C 354.956 76.420,354.616 76.057,354.347 75.898 C 353.730 75.533,353.607 75.267,353.184 73.366 C 352.961 72.363,352.617 71.421,352.211 70.699 L 351.584 69.583 351.525 66.889 C 351.458 63.809,351.619 62.781,352.343 61.651 C 352.676 61.133,352.977 60.276,353.249 59.070 C 353.641 57.334,353.686 57.240,354.389 56.639 C 354.791 56.295,355.213 55.791,355.326 55.519 C 355.438 55.247,355.814 54.836,356.161 54.607 C 356.508 54.377,356.954 53.927,357.153 53.606 C 357.442 53.139,357.725 52.952,358.580 52.668 C 359.167 52.473,359.932 52.083,360.282 51.802 C 360.631 51.521,361.142 51.191,361.417 51.069 C 362.003 50.808,361.667 50.788,360.511 51.015 M224.537 51.259 C 224.168 51.518,224.167 51.541,224.165 56.551 C 224.162 63.167,224.092 63.479,222.513 63.883 C 221.620 64.112,221.617 64.115,222.160 64.224 C 224.490 64.690,224.642 64.237,224.657 56.781 C 224.663 53.579,224.732 51.523,224.839 51.322 C 225.048 50.933,225.014 50.925,224.537 51.259 M112.583 55.119 C 111.890 55.286,112.000 55.468,112.859 55.576 C 115.032 55.848,116.788 56.702,117.476 57.820 C 117.889 58.492,118.107 58.661,118.956 58.970 C 120.002 59.352,122.286 59.495,122.083 59.167 C 122.027 59.075,121.516 59.002,120.948 59.005 L 119.917 59.010 118.917 57.918 C 118.082 57.006,117.711 56.742,116.672 56.322 C 115.988 56.045,115.187 55.634,114.892 55.409 C 114.366 55.008,113.498 54.899,112.583 55.119 M333.333 56.113 C 337.403 56.412,338.723 57.101,340.005 59.594 C 340.551 60.655,341.897 61.333,343.458 61.333 C 344.042 61.333,344.500 61.260,344.500 61.167 C 344.500 61.073,344.036 61.000,343.442 61.000 C 342.266 61.000,342.195 60.951,341.443 59.633 C 341.197 59.202,340.786 58.726,340.529 58.574 C 340.273 58.423,339.854 57.967,339.597 57.563 C 339.341 57.158,338.999 56.755,338.836 56.668 C 338.400 56.435,334.811 55.995,333.616 56.029 C 332.775 56.053,332.722 56.068,333.333 56.113 M365.519 56.070 C 365.576 56.129,366.176 56.240,366.853 56.316 C 369.210 56.581,370.918 57.903,372.255 60.500 C 373.424 62.769,373.420 69.728,372.250 72.083 C 370.803 74.993,369.027 76.174,365.851 76.338 L 363.750 76.446 365.500 76.473 C 369.003 76.527,370.092 76.228,371.186 74.908 C 371.334 74.730,371.719 74.381,372.042 74.133 C 372.516 73.770,372.712 73.423,373.067 72.321 C 373.309 71.572,373.642 70.762,373.808 70.521 C 374.486 69.534,374.583 68.996,374.581 66.250 L 374.578 63.583 373.982 62.414 C 373.655 61.771,373.222 60.758,373.021 60.164 C 372.605 58.935,372.487 58.760,371.636 58.125 C 371.299 57.873,370.976 57.521,370.919 57.342 C 370.726 56.732,369.849 56.378,368.250 56.263 C 367.425 56.204,366.450 56.112,366.083 56.059 C 365.717 56.005,365.463 56.011,365.519 56.070 M135.007 58.930 C 134.691 59.067,134.203 59.354,133.924 59.566 C 133.645 59.779,132.953 60.187,132.386 60.473 C 131.587 60.877,131.224 61.191,130.770 61.872 C 130.448 62.355,130.039 62.839,129.861 62.948 C 129.221 63.340,127.658 68.565,127.663 70.293 C 127.670 72.351,129.060 76.736,130.060 77.855 C 130.440 78.279,130.885 78.823,131.050 79.064 C 131.215 79.305,131.633 79.646,131.978 79.822 C 132.324 79.999,132.926 80.409,133.316 80.735 C 133.973 81.284,135.377 81.853,135.989 81.818 C 136.132 81.810,136.011 81.734,135.718 81.649 C 135.426 81.565,135.032 81.279,134.843 81.014 C 134.654 80.749,134.073 80.291,133.550 79.996 C 132.311 79.296,131.472 78.432,130.863 77.227 C 130.592 76.689,130.201 76.100,129.995 75.917 C 129.216 75.223,129.104 74.643,129.033 70.932 C 128.953 66.818,129.109 65.752,129.923 64.843 C 130.215 64.517,130.603 63.913,130.786 63.500 C 131.272 62.404,132.754 60.924,133.850 60.439 C 134.356 60.215,135.021 59.819,135.330 59.558 C 135.639 59.297,136.084 58.996,136.321 58.889 C 136.748 58.695,136.747 58.694,136.167 58.687 C 135.846 58.683,135.324 58.792,135.007 58.930 M166.273 59.077 L 165.831 59.486 165.874 70.267 L 165.917 81.047 166.333 81.345 C 166.563 81.508,167.087 81.687,167.500 81.742 L 168.250 81.843 167.500 81.463 L 166.750 81.083 166.707 70.352 C 166.661 58.742,166.617 59.319,167.583 58.898 L 168.083 58.680 167.399 58.673 C 166.898 58.668,166.597 58.776,166.273 59.077 M182.917 58.822 C 182.357 58.957,181.667 59.350,181.667 59.534 C 181.667 59.600,181.216 59.960,180.666 60.334 C 180.116 60.707,179.537 61.216,179.381 61.465 C 179.224 61.713,178.859 62.200,178.570 62.546 C 178.017 63.207,177.736 64.077,176.905 67.697 C 176.369 70.036,176.395 70.539,177.240 74.229 C 177.860 76.935,178.097 77.596,178.595 78.010 C 178.751 78.139,179.055 78.525,179.271 78.866 C 179.486 79.208,180.057 79.742,180.540 80.054 C 181.022 80.366,181.597 80.818,181.818 81.058 C 182.043 81.303,182.483 81.539,182.818 81.595 C 183.147 81.651,183.567 81.732,183.750 81.777 C 184.026 81.845,184.012 81.807,183.667 81.554 C 183.438 81.387,183.014 81.021,182.725 80.741 C 182.437 80.460,181.762 79.996,181.225 79.709 C 180.300 79.214,180.221 79.119,179.681 77.885 C 179.367 77.169,178.977 76.432,178.814 76.248 C 178.025 75.358,177.927 74.784,177.865 70.707 C 177.797 66.236,177.909 65.438,178.733 64.475 C 179.042 64.114,179.509 63.257,179.771 62.571 C 180.230 61.370,180.288 61.298,181.332 60.663 C 182.508 59.947,184.018 58.656,183.646 58.684 C 183.520 58.693,183.192 58.755,182.917 58.822 M241.377 58.829 C 241.080 58.900,240.667 59.081,240.460 59.233 C 240.253 59.384,239.671 59.778,239.167 60.109 C 235.841 62.289,235.371 64.227,238.000 64.921 C 239.396 65.289,239.510 65.215,238.458 64.623 C 237.930 64.326,237.336 63.942,237.138 63.769 L 236.776 63.455 237.301 63.019 C 237.590 62.779,238.000 62.246,238.213 61.833 C 238.541 61.199,238.783 60.994,239.785 60.500 C 240.437 60.179,241.277 59.635,241.652 59.292 C 242.349 58.653,242.321 58.605,241.377 58.829 M265.031 58.892 C 264.635 58.998,264.035 59.314,263.698 59.595 C 263.360 59.876,262.761 60.285,262.368 60.504 C 261.956 60.734,261.445 61.223,261.163 61.660 C 260.894 62.076,260.518 62.608,260.329 62.842 C 258.765 64.772,260.033 69.006,262.580 70.360 C 262.945 70.554,263.507 70.919,263.830 71.171 C 264.401 71.617,266.082 72.140,266.287 71.935 C 266.343 71.879,266.306 71.833,266.205 71.833 C 266.103 71.833,265.678 71.537,265.260 71.175 C 264.793 70.771,264.129 70.405,263.541 70.229 C 262.279 69.849,262.047 69.606,261.549 68.146 C 260.989 66.503,261.072 64.223,261.759 62.370 L 262.209 61.157 263.479 60.571 C 264.178 60.248,264.975 59.772,265.250 59.514 C 265.525 59.255,265.900 58.961,266.083 58.860 L 266.417 58.677 266.083 58.688 C 265.900 58.694,265.426 58.786,265.031 58.892 M294.167 58.862 C 293.838 58.955,293.238 59.378,292.793 59.830 C 292.279 60.353,291.785 60.684,291.378 60.781 C 290.554 60.975,290.479 61.391,291.189 61.823 L 291.735 62.154 292.576 61.270 C 293.038 60.783,293.567 60.277,293.750 60.145 C 293.933 60.013,294.342 59.626,294.658 59.286 C 295.257 58.639,295.182 58.574,294.167 58.862 M246.333 62.496 C 246.128 62.632,246.148 62.662,246.445 62.664 C 247.098 62.669,247.342 62.862,248.265 64.111 L 249.178 65.346 248.631 66.378 C 248.003 67.561,247.236 68.167,246.364 68.167 C 246.042 68.167,245.824 68.213,245.881 68.270 C 246.153 68.541,248.884 68.131,249.251 67.764 C 250.140 66.876,250.055 64.314,249.103 63.287 C 248.578 62.720,246.773 62.204,246.333 62.496 M270.584 62.565 C 270.951 62.680,271.900 63.275,272.693 63.887 C 273.982 64.882,274.212 64.999,274.859 64.986 L 275.583 64.973 274.715 64.576 C 274.116 64.302,273.705 63.966,273.394 63.495 C 272.795 62.591,272.247 62.331,270.967 62.344 L 269.917 62.356 270.584 62.565 M140.417 62.667 C 139.958 62.730,139.667 62.793,139.770 62.807 C 139.873 62.822,140.511 63.198,141.187 63.644 C 145.804 66.690,145.365 74.745,140.441 77.323 L 139.466 77.833 140.579 77.833 C 141.579 77.833,141.729 77.789,142.054 77.393 C 142.505 76.847,143.085 76.283,143.799 75.699 C 144.305 75.285,144.367 75.126,144.587 73.667 C 144.719 72.796,144.903 71.821,144.997 71.501 C 145.232 70.694,145.206 69.558,144.931 68.652 C 144.803 68.232,144.645 67.369,144.579 66.736 C 144.429 65.304,144.183 64.807,143.390 64.340 C 143.048 64.138,142.476 63.641,142.120 63.236 C 141.763 62.831,141.422 62.512,141.361 62.526 C 141.300 62.541,140.875 62.604,140.417 62.667 M188.487 62.932 C 188.709 63.093,189.380 63.493,189.980 63.821 C 191.129 64.449,192.006 65.416,192.710 66.833 C 193.149 67.715,193.256 72.296,192.860 73.233 C 192.195 74.807,191.296 75.832,189.683 76.855 L 188.083 77.869 189.250 77.764 C 190.335 77.667,190.458 77.614,191.000 77.018 C 191.321 76.665,191.866 76.210,192.210 76.007 C 193.000 75.541,193.125 75.301,193.330 73.854 C 193.422 73.209,193.609 72.359,193.746 71.965 C 194.063 71.055,194.070 69.407,193.760 68.528 C 193.628 68.153,193.439 67.265,193.340 66.554 C 193.160 65.263,192.629 64.333,192.070 64.333 C 191.960 64.333,191.505 64.005,191.059 63.604 C 190.334 62.953,190.133 62.863,189.166 62.757 C 188.103 62.641,188.091 62.644,188.487 62.932 M294.810 63.161 L 294.417 63.489 294.938 63.494 C 295.559 63.501,297.800 64.494,298.196 64.937 C 298.873 65.697,299.000 67.165,299.000 74.240 C 299.000 81.787,298.893 81.203,300.344 81.586 L 301.206 81.814 300.853 81.438 C 300.506 81.068,300.500 80.952,300.496 74.489 C 300.491 66.024,300.275 65.241,297.575 63.907 C 296.899 63.573,296.259 63.195,296.153 63.067 C 295.878 62.735,295.270 62.778,294.810 63.161 M111.667 68.354 C 112.171 68.435,113.071 68.753,113.667 69.061 C 114.263 69.368,115.151 69.751,115.640 69.911 C 116.539 70.206,117.667 71.034,117.667 71.399 C 117.667 71.507,117.817 71.890,118.000 72.250 C 118.412 73.059,118.415 73.251,118.019 73.808 C 117.846 74.051,117.588 74.530,117.446 74.871 C 117.303 75.213,116.950 75.637,116.661 75.812 C 115.976 76.229,112.299 77.201,111.895 77.072 C 111.601 76.979,111.602 76.988,111.907 77.236 C 112.429 77.662,114.119 77.591,114.836 77.114 C 115.156 76.901,116.017 76.519,116.750 76.264 C 118.823 75.543,119.312 74.742,119.122 72.377 C 119.006 70.925,118.680 70.513,117.289 70.060 C 116.686 69.864,115.755 69.435,115.221 69.108 C 114.224 68.497,112.788 68.150,111.417 68.187 C 110.795 68.204,110.812 68.216,111.667 68.354 M222.625 68.288 C 221.791 68.375,221.839 68.532,222.793 68.833 C 224.029 69.224,224.067 69.419,224.131 75.687 L 224.184 80.958 224.615 81.354 C 225.029 81.735,225.038 81.736,224.856 81.386 C 224.728 81.139,224.666 79.477,224.665 76.219 C 224.664 69.998,224.598 69.290,223.962 68.654 C 223.694 68.386,223.424 68.179,223.362 68.195 C 223.300 68.210,222.969 68.252,222.625 68.288 M239.940 68.832 C 239.494 69.006,239.007 69.257,238.856 69.389 C 238.706 69.521,238.109 69.867,237.529 70.157 C 236.825 70.509,236.382 70.856,236.195 71.200 C 236.042 71.484,235.702 71.968,235.441 72.275 C 234.370 73.533,234.328 76.399,235.354 78.268 C 236.434 80.235,238.504 81.850,239.917 81.826 C 240.149 81.822,240.077 81.745,239.679 81.572 C 239.364 81.436,238.835 81.045,238.502 80.704 C 238.168 80.363,237.638 79.932,237.324 79.747 C 236.412 79.211,236.276 78.735,236.197 75.800 L 236.127 73.184 236.628 72.114 C 237.125 71.051,237.140 71.038,238.689 70.259 C 239.548 69.827,240.400 69.334,240.583 69.163 C 240.767 68.993,241.104 68.779,241.333 68.687 L 241.750 68.521 241.250 68.518 C 240.975 68.517,240.385 68.658,239.940 68.832 M248.041 71.133 C 247.286 71.615,247.157 71.833,247.625 71.834 C 248.117 71.835,248.985 72.466,249.095 72.902 C 249.454 74.332,247.684 77.279,246.191 77.739 L 245.417 77.977 246.542 77.988 C 247.486 77.998,247.714 77.944,247.958 77.653 C 248.119 77.462,248.564 76.993,248.948 76.611 C 250.299 75.267,250.396 72.233,249.126 71.040 L 248.745 70.682 248.041 71.133 M267.375 72.115 C 267.535 72.157,267.798 72.157,267.958 72.115 C 268.119 72.073,267.987 72.039,267.667 72.039 C 267.346 72.039,267.215 72.073,267.375 72.115 M341.138 72.263 C 340.539 72.447,340.273 72.646,339.987 73.126 C 338.641 75.388,337.263 76.188,334.500 76.314 C 332.634 76.398,332.530 76.418,333.500 76.504 C 334.704 76.611,338.207 76.252,338.793 75.962 C 338.999 75.860,339.356 75.456,339.585 75.066 C 339.814 74.675,340.219 74.200,340.485 74.010 C 340.971 73.664,342.275 71.990,342.041 72.012 C 341.973 72.018,341.566 72.131,341.138 72.263 M269.558 72.327 C 270.492 72.500,272.464 73.747,273.005 74.507 C 273.623 75.376,272.847 76.944,271.487 77.574 L 270.647 77.963 271.365 78.042 C 272.319 78.147,272.971 77.772,273.500 76.815 C 273.729 76.400,274.086 75.849,274.293 75.590 L 274.669 75.118 273.876 74.253 C 273.440 73.777,272.871 73.151,272.611 72.861 C 272.239 72.446,272.005 72.333,271.510 72.333 C 271.165 72.333,270.402 72.298,269.816 72.256 C 268.800 72.181,268.788 72.185,269.558 72.327 M101.087 72.599 C 99.999 72.998,99.999 73.013,101.076 75.885 C 101.846 77.939,103.013 79.331,104.500 79.971 C 104.912 80.148,105.541 80.527,105.897 80.813 C 106.533 81.323,107.200 81.578,108.342 81.747 L 108.917 81.832 108.412 81.671 C 108.135 81.582,107.656 81.249,107.347 80.931 C 107.000 80.572,106.284 80.149,105.468 79.821 C 104.352 79.371,104.104 79.197,103.843 78.686 C 103.673 78.355,103.232 77.812,102.862 77.480 C 101.796 76.525,101.150 73.439,101.857 72.680 C 102.237 72.271,102.040 72.251,101.087 72.599 M261.213 75.288 C 260.159 75.384,259.384 76.648,259.842 77.526 C 260.256 78.321,261.521 79.647,262.290 80.093 C 262.727 80.346,263.325 80.762,263.621 81.018 C 263.917 81.274,264.442 81.531,264.788 81.590 C 265.134 81.648,265.567 81.730,265.750 81.773 L 266.083 81.849 265.750 81.647 C 265.567 81.536,265.092 81.161,264.695 80.814 C 264.297 80.467,263.622 80.054,263.195 79.896 C 262.125 79.502,262.084 79.459,261.414 78.066 C 260.928 77.056,260.854 76.772,261.005 76.491 C 261.224 76.082,262.130 75.501,262.552 75.501 C 262.717 75.500,262.807 75.425,262.750 75.333 C 262.693 75.242,262.483 75.180,262.282 75.196 C 262.081 75.212,261.600 75.254,261.213 75.288 M192.916 80.106 C 193.374 81.240,193.793 81.599,194.833 81.751 L 195.583 81.860 194.834 81.472 C 194.165 81.124,194.072 81.005,193.963 80.345 C 193.818 79.471,193.737 79.372,193.047 79.234 L 192.522 79.129 192.916 80.106 M248.460 79.346 C 247.868 79.690,247.734 80.227,248.315 79.926 L 248.819 79.666 249.244 80.392 C 250.014 81.705,250.448 81.936,249.925 80.754 C 249.281 79.297,249.003 79.029,248.460 79.346 " stroke="none" fill="#b07045" fill-rule="evenodd"></path><path id="path3" d="M167.083 48.623 C 166.468 48.778,166.098 49.158,165.320 50.439 L 164.545 51.713 164.791 52.565 C 165.206 54.003,165.474 54.489,166.040 54.834 C 166.868 55.340,167.553 55.415,168.094 55.061 L 168.556 54.758 167.594 54.565 C 164.949 54.036,165.242 50.494,168.036 49.234 L 168.706 48.932 168.145 48.728 C 167.521 48.503,167.548 48.506,167.083 48.623 M154.627 50.594 C 153.625 51.138,153.667 50.460,153.667 66.341 C 153.667 79.593,153.691 80.906,153.944 81.335 C 154.405 82.115,155.308 82.365,156.281 81.982 L 156.750 81.798 155.968 81.594 C 154.538 81.221,154.667 82.733,154.667 66.339 C 154.667 50.019,154.570 51.311,155.806 51.064 C 156.540 50.917,156.597 50.733,155.975 50.516 C 155.310 50.284,155.185 50.292,154.627 50.594 M203.885 50.519 C 202.576 50.893,202.667 49.732,202.667 66.197 C 202.667 82.998,202.575 82.167,204.435 82.167 C 205.498 82.167,205.600 81.818,204.648 81.439 L 203.750 81.080 203.707 66.372 L 203.665 51.663 204.457 51.293 C 205.459 50.826,205.423 50.854,205.239 50.683 C 204.965 50.427,204.432 50.363,203.885 50.519 M283.885 50.519 C 282.576 50.893,282.667 49.732,282.667 66.197 C 282.667 82.998,282.575 82.167,284.435 82.167 C 285.498 82.167,285.600 81.818,284.648 81.439 L 283.750 81.080 283.707 66.372 L 283.665 51.663 284.457 51.293 C 285.459 50.826,285.423 50.854,285.239 50.683 C 284.965 50.427,284.432 50.363,283.885 50.519 M106.250 50.756 C 105.975 50.895,105.600 51.188,105.417 51.407 C 105.233 51.626,104.641 52.012,104.101 52.266 C 103.474 52.561,103.009 52.913,102.815 53.239 C 102.648 53.520,102.255 53.952,101.942 54.199 C 100.723 55.163,99.489 60.722,100.280 61.689 C 100.382 61.814,100.579 62.301,100.718 62.770 C 101.086 64.021,101.446 64.630,101.978 64.905 C 102.238 65.040,102.587 65.360,102.754 65.616 C 103.165 66.247,103.420 66.420,104.542 66.832 C 105.069 67.026,105.500 67.254,105.500 67.340 C 105.500 67.962,107.663 68.602,108.917 68.351 C 109.624 68.210,109.507 68.096,108.478 67.926 C 108.145 67.871,107.552 67.593,107.159 67.309 C 106.767 67.025,105.929 66.579,105.297 66.318 C 103.913 65.748,101.963 63.894,101.665 62.865 C 100.914 60.274,101.408 55.584,102.494 55.003 C 102.660 54.914,103.068 54.463,103.400 54.001 C 103.830 53.403,104.255 53.044,104.877 52.753 C 105.357 52.529,106.227 52.046,106.809 51.680 C 107.420 51.297,108.197 50.963,108.643 50.892 L 109.417 50.769 108.750 50.644 C 107.680 50.443,106.787 50.483,106.250 50.756 M193.417 50.619 C 192.366 50.874,192.333 51.018,192.333 55.461 C 192.333 59.391,192.322 59.534,192.000 59.618 C 191.530 59.741,191.586 60.238,192.141 60.859 L 192.616 61.390 192.891 60.582 C 193.118 59.918,193.167 59.054,193.167 55.735 L 193.167 51.696 193.679 51.265 C 193.977 51.015,194.414 50.826,194.721 50.817 C 195.227 50.801,195.232 50.794,194.833 50.667 C 194.363 50.516,193.906 50.501,193.417 50.619 M327.237 50.736 C 326.955 50.859,326.460 51.192,326.137 51.475 C 325.815 51.758,325.214 52.134,324.804 52.310 C 324.372 52.495,323.828 52.919,323.516 53.313 C 323.219 53.689,322.763 54.121,322.503 54.274 C 322.244 54.428,321.864 54.860,321.659 55.235 C 321.455 55.610,321.002 56.217,320.652 56.583 C 320.132 57.129,319.939 57.537,319.584 58.833 C 319.345 59.704,318.967 60.811,318.743 61.293 C 317.809 63.303,317.708 68.783,318.567 70.833 C 318.817 71.429,319.203 72.575,319.425 73.379 C 319.906 75.118,320.206 75.742,320.729 76.085 C 320.942 76.224,321.323 76.719,321.576 77.183 C 321.828 77.647,322.270 78.169,322.558 78.344 C 322.846 78.519,323.272 78.943,323.505 79.287 C 323.799 79.720,324.274 80.078,325.048 80.453 C 325.663 80.750,326.167 81.056,326.167 81.133 C 326.167 81.411,327.436 81.970,328.167 82.013 C 329.928 82.116,330.798 81.800,329.237 81.624 C 328.743 81.568,328.172 81.332,327.612 80.952 C 327.138 80.630,326.206 80.095,325.542 79.764 C 324.877 79.433,324.333 79.086,324.333 78.992 C 324.333 78.898,323.902 78.385,323.375 77.851 C 322.848 77.318,322.162 76.477,321.851 75.982 C 321.540 75.488,321.070 74.743,320.806 74.327 C 318.829 71.205,319.108 60.473,321.242 57.583 C 321.445 57.308,321.823 56.718,322.083 56.272 C 322.814 55.014,324.687 53.213,325.754 52.741 C 326.259 52.518,327.048 52.077,327.507 51.761 C 328.384 51.158,328.509 51.106,329.583 50.903 L 330.250 50.778 329.750 50.659 C 328.929 50.463,327.784 50.498,327.237 50.736 M358.833 50.686 C 358.604 50.777,358.192 51.067,357.917 51.330 C 357.642 51.592,356.921 52.043,356.314 52.331 C 355.648 52.647,355.123 53.020,354.987 53.275 C 354.863 53.506,354.410 53.990,353.980 54.350 C 353.550 54.711,353.032 55.323,352.830 55.711 C 352.628 56.099,352.218 56.688,351.919 57.019 C 351.293 57.712,350.960 58.636,350.573 60.750 C 350.422 61.575,350.194 62.453,350.066 62.700 C 349.734 63.342,349.733 69.321,350.064 69.967 C 350.191 70.214,350.447 71.204,350.632 72.167 C 351.040 74.280,351.170 74.634,351.800 75.356 C 352.068 75.665,352.534 76.354,352.835 76.889 C 353.135 77.424,353.614 78.017,353.899 78.207 C 354.184 78.397,354.642 78.855,354.917 79.224 C 355.285 79.718,355.724 80.028,356.583 80.400 C 357.225 80.679,357.848 81.040,357.968 81.204 C 358.360 81.738,359.192 82.047,360.201 82.033 C 361.565 82.013,361.958 81.748,360.822 81.613 C 360.204 81.540,359.761 81.364,359.336 81.022 C 359.004 80.755,358.135 80.233,357.407 79.862 C 355.961 79.126,354.136 77.309,353.237 75.712 C 352.992 75.274,352.541 74.498,352.236 73.986 C 350.542 71.147,350.543 61.455,352.236 58.667 C 352.542 58.163,352.952 57.434,353.147 57.047 C 353.824 55.703,356.125 53.364,357.408 52.715 C 358.045 52.393,358.834 51.914,359.161 51.651 C 359.522 51.361,360.108 51.106,360.651 51.003 C 361.143 50.910,361.592 50.824,361.648 50.812 C 361.851 50.771,360.237 50.525,359.750 50.523 C 359.475 50.522,359.063 50.596,358.833 50.686 M223.448 51.134 L 223.000 51.602 223.000 56.479 L 223.000 61.357 222.525 62.053 C 221.814 63.097,221.698 64.069,222.299 63.948 C 224.047 63.597,224.051 63.580,224.125 56.873 L 224.184 51.496 224.612 51.216 C 225.007 50.957,225.016 50.926,224.729 50.813 C 224.169 50.593,223.903 50.659,223.448 51.134 M112.158 55.808 C 112.383 55.988,113.058 56.289,113.658 56.478 C 116.188 57.273,116.308 57.334,116.500 57.916 C 117.062 59.619,118.412 60.675,119.350 60.146 C 119.570 60.022,120.269 59.883,120.904 59.836 C 122.492 59.718,122.621 59.333,121.073 59.333 C 119.294 59.333,118.111 58.823,117.433 57.765 C 117.134 57.298,116.708 56.825,116.486 56.713 C 115.494 56.212,113.813 55.698,112.826 55.595 L 111.750 55.482 112.158 55.808 M333.750 56.335 C 335.570 56.501,336.482 56.777,336.899 57.292 C 337.092 57.529,337.681 58.151,338.208 58.674 C 338.735 59.197,339.167 59.749,339.167 59.902 C 339.167 60.276,339.769 61.436,340.174 61.840 C 340.566 62.233,341.600 62.278,342.104 61.925 C 342.293 61.793,342.923 61.661,343.503 61.634 C 344.082 61.606,344.582 61.508,344.612 61.417 C 344.646 61.313,344.255 61.271,343.581 61.306 C 341.988 61.388,340.582 60.715,340.006 59.596 C 338.725 57.104,336.775 56.104,333.363 56.191 C 332.483 56.213,332.511 56.223,333.750 56.335 M365.044 56.286 C 365.297 56.325,365.672 56.324,365.877 56.284 C 366.082 56.244,365.875 56.213,365.417 56.214 C 364.958 56.216,364.791 56.248,365.044 56.286 M367.055 56.504 C 367.866 56.711,370.355 59.132,370.647 59.997 C 370.755 60.316,371.057 60.804,371.318 61.080 C 372.601 62.439,372.599 70.116,371.316 71.578 C 371.056 71.874,370.695 72.461,370.515 72.883 C 370.295 73.396,369.962 73.797,369.510 74.097 C 369.138 74.343,368.833 74.598,368.833 74.664 C 368.833 75.045,367.702 75.902,366.935 76.102 L 366.083 76.325 367.083 76.242 C 371.674 75.862,374.360 69.184,372.778 62.083 C 372.121 59.132,369.608 56.547,367.250 56.395 L 366.417 56.341 367.055 56.504 M293.080 58.399 C 292.803 58.520,292.367 58.893,292.111 59.229 C 291.854 59.565,291.587 59.804,291.516 59.760 C 291.445 59.716,291.225 59.969,291.026 60.323 L 290.665 60.965 291.343 60.793 C 291.803 60.676,292.273 60.360,292.802 59.813 C 293.438 59.156,293.754 58.967,294.500 58.800 L 295.417 58.595 294.750 58.393 C 293.889 58.134,293.688 58.134,293.080 58.399 M133.417 58.643 C 133.142 58.813,132.767 59.123,132.583 59.331 C 132.400 59.539,131.939 59.844,131.560 60.008 C 131.180 60.172,130.730 60.513,130.560 60.767 C 130.389 61.020,129.897 61.570,129.466 61.989 C 128.869 62.569,128.575 63.047,128.227 64.000 C 127.976 64.688,127.639 65.438,127.478 65.667 C 126.275 67.375,126.335 72.987,127.581 75.250 C 127.884 75.800,128.232 76.587,128.354 77.000 C 128.490 77.460,128.836 78.008,129.249 78.417 C 129.620 78.783,130.059 79.297,130.225 79.557 C 130.392 79.818,130.860 80.178,131.265 80.357 C 131.671 80.537,132.164 80.902,132.361 81.169 C 132.898 81.895,133.620 82.176,134.640 82.055 C 135.690 81.931,135.726 81.796,134.774 81.542 C 134.375 81.435,133.724 81.077,133.328 80.745 C 132.931 80.414,132.324 79.999,131.978 79.822 C 131.633 79.646,131.215 79.305,131.050 79.064 C 130.885 78.823,130.440 78.279,130.060 77.855 C 129.060 76.736,127.670 72.351,127.663 70.293 C 127.658 68.565,129.221 63.340,129.861 62.948 C 130.039 62.839,130.448 62.355,130.770 61.871 C 131.227 61.186,131.601 60.864,132.470 60.407 C 133.082 60.084,133.940 59.587,134.376 59.302 C 134.906 58.956,135.458 58.754,136.043 58.693 C 136.821 58.612,136.862 58.589,136.417 58.487 C 135.374 58.249,133.935 58.324,133.417 58.643 M165.750 58.535 C 164.994 58.968,165.011 58.697,165.005 70.199 L 165.000 81.148 165.375 81.565 C 165.735 81.964,166.261 82.090,167.302 82.024 C 167.794 81.993,167.607 81.667,167.096 81.667 C 166.885 81.667,166.514 81.511,166.272 81.321 L 165.833 80.976 165.833 70.230 L 165.833 59.484 166.274 59.075 C 166.583 58.789,166.920 58.662,167.399 58.650 C 167.988 58.636,168.025 58.615,167.667 58.500 C 167.047 58.301,166.128 58.318,165.750 58.535 M181.296 58.593 C 181.046 58.729,180.762 58.988,180.665 59.169 C 180.568 59.351,180.210 59.643,179.869 59.819 C 178.882 60.330,177.508 62.029,177.149 63.183 C 176.979 63.727,176.615 64.640,176.339 65.213 C 175.117 67.746,175.108 73.248,176.321 75.237 C 176.493 75.519,176.794 76.293,176.990 76.956 C 177.426 78.432,179.416 80.833,180.204 80.833 C 180.281 80.833,180.567 81.088,180.840 81.398 C 181.396 82.032,182.096 82.235,183.148 82.067 C 183.979 81.934,183.909 81.743,182.983 81.619 C 182.500 81.554,182.108 81.351,181.687 80.949 C 181.355 80.632,180.765 80.175,180.376 79.935 C 179.987 79.694,179.491 79.216,179.274 78.871 C 179.057 78.527,178.751 78.139,178.595 78.010 C 178.097 77.596,177.860 76.935,177.240 74.229 C 176.395 70.539,176.369 70.036,176.905 67.697 C 177.736 64.077,178.017 63.207,178.570 62.546 C 178.859 62.200,179.224 61.713,179.381 61.465 C 179.537 61.216,180.116 60.707,180.666 60.334 C 181.216 59.960,181.667 59.598,181.667 59.530 C 181.667 59.317,182.552 58.882,183.238 58.758 C 183.719 58.672,183.830 58.600,183.655 58.489 C 183.284 58.254,181.800 58.320,181.296 58.593 M239.750 58.528 C 239.567 58.629,239.243 58.871,239.032 59.064 C 238.820 59.258,238.147 59.754,237.536 60.167 C 234.327 62.333,234.606 66.188,237.939 65.736 C 239.372 65.541,239.476 65.259,238.218 64.982 C 237.197 64.757,236.167 63.974,236.167 63.422 C 236.167 62.266,239.890 59.142,241.750 58.737 C 242.197 58.640,242.215 58.614,241.917 58.493 C 241.429 58.294,240.135 58.315,239.750 58.528 M263.667 58.454 C 263.529 58.505,263.100 58.837,262.712 59.190 C 262.325 59.544,261.925 59.833,261.825 59.833 C 261.416 59.833,259.688 61.711,259.330 62.546 C 258.760 63.869,258.785 67.251,259.374 68.536 C 259.816 69.502,260.723 70.361,261.958 70.983 C 262.348 71.180,262.667 71.407,262.667 71.490 C 262.667 72.090,264.419 72.483,265.750 72.180 C 266.222 72.073,266.198 72.054,265.333 71.848 C 264.829 71.728,264.153 71.423,263.830 71.171 C 263.507 70.919,262.945 70.554,262.580 70.360 C 260.033 69.006,258.765 64.772,260.329 62.842 C 260.518 62.608,260.894 62.076,261.163 61.660 C 261.446 61.222,261.954 60.735,262.368 60.505 C 262.761 60.287,263.364 59.871,263.707 59.581 C 264.097 59.251,264.691 58.970,265.290 58.829 C 266.188 58.620,266.218 58.598,265.750 58.489 C 265.135 58.346,264.004 58.327,263.667 58.454 M246.022 62.992 C 246.117 63.264,246.334 63.531,246.505 63.585 C 246.676 63.639,247.036 64.065,247.305 64.532 L 247.795 65.380 247.453 66.232 C 247.265 66.700,246.884 67.327,246.606 67.625 L 246.101 68.167 246.526 68.167 C 247.240 68.167,248.045 67.482,248.631 66.378 L 249.178 65.346 248.258 64.102 C 247.752 63.417,247.206 62.821,247.044 62.777 C 245.861 62.456,245.837 62.461,246.022 62.992 M270.429 62.875 C 270.619 63.473,271.344 64.331,271.902 64.615 C 272.185 64.760,272.734 65.168,273.121 65.522 C 273.935 66.266,274.023 66.283,274.755 65.830 C 275.605 65.305,275.626 65.000,274.812 65.000 C 274.233 65.000,273.930 64.842,272.718 63.907 C 271.503 62.968,270.729 62.500,270.395 62.500 C 270.349 62.500,270.364 62.669,270.429 62.875 M139.521 63.156 C 139.764 63.853,140.408 64.490,140.986 64.606 C 142.382 64.885,143.750 69.674,143.066 71.885 C 142.134 74.897,141.771 75.582,140.935 75.901 C 140.120 76.212,139.162 77.667,139.771 77.667 C 141.108 77.667,143.847 74.377,144.174 72.378 C 144.904 67.918,143.505 64.716,140.050 62.941 C 139.344 62.578,139.323 62.586,139.521 63.156 M187.929 62.980 C 187.769 63.240,188.723 64.150,189.652 64.623 C 190.148 64.876,190.611 65.196,190.681 65.333 C 192.571 69.070,192.785 71.742,191.341 73.583 C 191.269 73.675,191.116 74.050,191.001 74.417 C 190.725 75.293,190.459 75.576,189.698 75.804 C 188.952 76.028,187.689 77.667,188.262 77.667 C 188.867 77.667,191.357 75.725,191.972 74.774 C 194.042 71.573,193.381 65.895,190.750 64.281 C 188.511 62.907,188.093 62.715,187.929 62.980 M294.506 63.741 C 294.640 63.873,295.380 64.307,296.150 64.704 C 298.124 65.724,298.024 65.253,298.149 74.140 L 298.250 81.363 298.718 81.765 C 299.249 82.222,300.243 82.308,300.746 81.940 C 301.030 81.732,301.002 81.704,300.403 81.595 C 300.044 81.529,299.581 81.367,299.375 81.234 L 299.000 80.992 299.000 74.257 C 299.000 65.214,298.976 65.109,296.688 64.062 C 295.399 63.473,294.030 63.271,294.506 63.741 M238.042 68.728 C 237.698 69.037,237.107 69.446,236.729 69.637 C 236.351 69.829,235.841 70.232,235.596 70.534 C 235.351 70.836,234.897 71.355,234.587 71.687 C 233.704 72.631,233.405 76.344,234.058 78.250 C 234.780 80.355,237.405 82.348,239.108 82.084 L 239.917 81.959 239.047 81.672 C 235.451 80.482,233.277 74.817,235.441 72.275 C 235.702 71.968,236.042 71.484,236.196 71.200 C 236.462 70.707,236.694 70.558,239.610 69.016 C 240.027 68.795,240.754 68.574,241.226 68.525 L 242.083 68.436 241.417 68.311 C 239.749 67.998,238.713 68.126,238.042 68.728 M111.277 68.637 C 111.326 68.825,111.565 69.057,111.808 69.153 C 112.051 69.248,112.446 69.485,112.686 69.679 C 112.926 69.873,113.751 70.179,114.519 70.357 C 116.413 70.798,116.557 70.914,116.802 72.190 C 117.258 74.571,116.657 75.342,113.750 76.099 C 112.615 76.395,111.699 76.897,111.979 77.070 C 112.229 77.225,116.008 76.209,116.661 75.812 C 116.950 75.637,117.303 75.213,117.446 74.871 C 117.588 74.530,117.846 74.051,118.019 73.808 C 118.415 73.251,118.412 73.059,118.000 72.250 C 117.817 71.890,117.667 71.507,117.667 71.399 C 117.667 71.034,116.539 70.206,115.640 69.911 C 115.151 69.751,114.263 69.369,113.667 69.063 C 112.255 68.338,111.147 68.140,111.277 68.637 M221.903 69.228 C 222.004 69.625,222.292 70.246,222.543 70.609 L 223.000 71.268 223.000 76.202 L 223.000 81.137 223.519 81.574 C 223.884 81.881,224.143 81.978,224.394 81.901 C 224.915 81.741,224.925 81.702,224.537 81.290 C 224.196 80.927,224.183 80.739,224.125 75.665 C 224.050 69.056,224.050 69.058,222.152 68.609 L 221.720 68.507 221.903 69.228 M339.756 71.922 C 339.432 72.246,339.167 72.627,339.167 72.769 C 339.167 72.911,338.731 73.452,338.199 73.972 C 337.667 74.491,337.069 75.130,336.872 75.390 C 336.578 75.776,336.289 75.906,335.298 76.097 L 334.083 76.331 335.378 76.251 C 337.275 76.133,338.821 75.085,339.988 73.126 C 340.295 72.610,340.522 72.454,341.296 72.229 L 342.233 71.957 341.848 71.645 C 341.220 71.136,340.438 71.240,339.756 71.922 M247.285 72.222 C 247.342 72.512,247.490 72.825,247.614 72.917 C 248.263 73.400,247.690 75.165,246.505 76.329 C 245.593 77.227,245.000 78.000,245.225 78.000 C 247.569 78.000,250.294 73.356,248.601 72.246 C 247.684 71.645,247.169 71.636,247.285 72.222 M99.718 72.416 C 98.944 73.189,99.117 75.113,100.076 76.417 C 100.278 76.692,100.695 77.391,101.002 77.971 C 101.648 79.192,102.562 80.043,103.650 80.434 C 104.072 80.586,104.604 80.916,104.833 81.167 C 105.516 81.914,106.130 82.140,107.123 82.009 C 107.933 81.902,108.522 81.668,107.986 81.666 C 107.409 81.663,106.488 81.287,105.895 80.811 C 105.540 80.526,104.912 80.148,104.500 79.971 C 102.637 79.169,101.524 77.535,100.401 73.955 C 100.096 72.981,100.125 72.929,101.194 72.574 C 102.036 72.295,102.044 72.285,101.651 72.067 C 100.944 71.676,100.351 71.782,99.718 72.416 M268.423 72.521 C 268.786 72.716,269.323 73.006,269.615 73.165 C 269.908 73.324,270.386 73.655,270.677 73.900 C 270.969 74.145,271.451 74.448,271.750 74.572 C 272.604 74.929,272.613 75.132,271.812 75.905 C 271.411 76.291,270.905 76.929,270.688 77.322 L 270.292 78.036 270.688 77.913 C 272.579 77.328,273.768 75.579,273.005 74.507 C 272.393 73.647,270.514 72.512,269.401 72.330 C 267.873 72.080,267.673 72.119,268.423 72.521 M259.442 74.876 C 258.201 76.117,258.855 78.761,260.732 80.089 C 261.292 80.486,262.026 81.044,262.363 81.330 C 263.123 81.975,263.873 82.202,264.794 82.066 C 265.741 81.927,265.818 81.731,264.969 81.617 C 264.590 81.566,264.085 81.367,263.848 81.174 C 263.611 80.982,263.079 80.620,262.667 80.370 C 259.257 78.307,258.758 75.385,261.799 75.289 C 262.993 75.251,263.125 74.670,261.940 74.665 C 261.744 74.664,261.196 74.617,260.722 74.560 C 259.952 74.468,259.817 74.501,259.442 74.876 M192.042 79.767 C 191.567 80.309,191.547 80.833,192.000 80.833 C 192.183 80.833,192.333 80.933,192.333 81.054 C 192.333 81.674,193.354 82.105,194.635 82.024 C 195.135 81.993,194.936 81.667,194.416 81.667 C 193.856 81.667,193.261 81.051,192.926 80.125 C 192.595 79.211,192.546 79.191,192.042 79.767 M248.281 79.934 C 247.869 80.157,247.826 80.254,247.925 80.719 C 248.072 81.404,248.135 81.500,248.432 81.500 C 248.568 81.500,248.846 81.610,249.051 81.744 C 249.683 82.158,250.471 81.793,249.924 81.340 C 249.791 81.229,249.488 80.807,249.251 80.403 C 249.013 79.998,248.804 79.670,248.785 79.673 C 248.766 79.677,248.539 79.794,248.281 79.934 " stroke="none" fill="#d5a777" fill-rule="evenodd"></path><path id="path4" d="M20.083 34.859 C 19.098 35.403,19.174 32.778,19.170 66.279 L 19.167 96.808 19.598 97.321 L 20.030 97.833 54.576 97.833 C 89.114 97.833,89.122 97.833,89.555 97.493 C 90.547 96.712,90.152 91.485,89.008 90.255 C 88.682 89.905,88.346 89.101,88.012 87.872 C 87.900 87.460,87.507 86.810,87.077 86.326 C 86.669 85.867,86.185 85.195,86.000 84.833 C 85.815 84.471,85.432 84.004,85.149 83.796 C 84.866 83.587,84.445 83.095,84.215 82.703 C 83.984 82.310,83.582 81.879,83.322 81.744 C 83.061 81.609,82.601 81.191,82.299 80.815 C 81.997 80.439,81.478 79.993,81.146 79.823 C 80.814 79.653,80.251 79.205,79.896 78.826 C 79.541 78.447,78.762 77.889,78.167 77.585 C 77.571 77.282,76.904 76.841,76.684 76.606 C 76.465 76.370,75.902 76.052,75.434 75.900 C 74.299 75.529,73.688 75.211,73.066 74.670 C 72.695 74.347,72.036 74.092,70.733 73.768 C 69.734 73.519,68.634 73.130,68.289 72.903 C 67.476 72.370,66.173 72.048,64.000 71.844 C 63.038 71.754,60.754 71.527,58.927 71.340 C 54.486 70.886,53.779 70.905,47.250 71.656 C 46.517 71.740,45.338 71.858,44.630 71.918 C 42.955 72.060,41.777 72.379,41.024 72.895 C 40.678 73.131,39.671 73.492,38.687 73.733 C 37.736 73.965,36.783 74.271,36.568 74.411 C 35.627 75.028,35.500 74.172,35.500 67.226 C 35.500 60.890,35.614 59.948,36.335 60.334 C 36.489 60.417,37.150 60.606,37.802 60.754 C 38.455 60.903,39.273 61.218,39.620 61.455 C 40.656 62.162,41.506 62.465,43.000 62.661 C 45.207 62.951,46.332 63.188,47.431 63.598 C 50.200 64.631,58.790 64.713,61.363 63.732 C 62.012 63.484,64.572 62.941,67.250 62.482 C 67.881 62.374,68.650 62.073,69.333 61.667 C 69.929 61.312,70.902 60.899,71.496 60.747 C 72.799 60.414,73.070 60.279,73.868 59.566 C 74.215 59.256,74.881 58.899,75.385 58.752 C 75.879 58.608,76.462 58.301,76.680 58.069 C 76.898 57.837,77.490 57.412,77.996 57.124 C 78.503 56.837,79.292 56.229,79.750 55.775 C 80.208 55.320,80.808 54.811,81.082 54.643 C 81.356 54.475,81.772 54.057,82.005 53.713 C 82.239 53.369,82.676 52.922,82.977 52.719 C 83.278 52.516,83.753 52.028,84.034 51.634 C 84.315 51.239,84.830 50.637,85.179 50.295 C 85.527 49.954,86.038 49.202,86.313 48.625 C 86.589 48.048,87.008 47.394,87.246 47.170 C 87.539 46.896,87.846 46.223,88.197 45.090 C 88.483 44.170,88.895 43.182,89.113 42.895 C 89.628 42.217,89.949 40.608,90.094 37.985 L 90.209 35.886 89.701 35.318 L 89.194 34.750 54.805 34.713 C 29.971 34.686,20.324 34.727,20.083 34.859 M88.833 36.520 C 88.833 36.864,88.658 37.239,88.312 37.633 C 87.441 38.625,87.000 40.373,87.000 42.832 C 87.000 44.008,86.892 44.333,86.501 44.333 C 85.718 44.333,85.011 45.810,85.003 47.458 C 85.001 47.884,84.930 48.000,84.675 48.000 C 83.846 48.000,83.296 48.561,83.134 49.569 C 83.104 49.759,82.857 49.963,82.520 50.077 C 81.902 50.285,81.333 50.879,81.333 51.318 C 81.333 51.679,81.013 52.000,80.652 52.000 C 80.213 52.000,79.618 52.568,79.410 53.186 C 79.260 53.632,79.091 53.784,78.588 53.925 C 77.868 54.127,77.333 54.691,77.333 55.249 C 77.333 55.642,76.969 55.827,76.181 55.831 C 75.764 55.833,74.167 56.764,74.167 57.005 C 74.167 57.325,73.630 57.634,72.883 57.746 C 71.878 57.897,71.577 58.060,70.796 58.873 C 70.177 59.517,70.145 59.528,68.485 59.684 C 66.351 59.885,65.763 60.120,65.514 60.875 L 65.325 61.448 62.704 61.557 C 59.326 61.697,50.005 61.697,46.626 61.557 L 44.003 61.448 43.710 60.849 C 43.320 60.053,42.884 59.875,40.839 59.683 L 39.116 59.521 38.331 58.748 C 37.193 57.627,35.390 57.379,34.671 58.245 C 33.950 59.113,33.986 75.724,34.711 76.449 C 35.636 77.374,39.128 76.627,39.426 75.440 C 39.518 75.073,39.624 75.049,42.001 74.871 C 44.644 74.673,45.096 74.535,45.880 73.687 C 46.529 72.985,46.718 72.972,55.311 73.031 L 62.872 73.083 63.405 73.701 C 64.128 74.537,64.525 74.657,67.296 74.871 L 69.685 75.055 69.920 75.617 C 70.199 76.286,70.956 76.654,72.323 76.788 C 73.367 76.890,73.833 77.077,73.833 77.393 C 73.833 77.944,75.048 78.606,76.421 78.802 C 77.179 78.911,77.235 78.954,77.453 79.608 C 77.680 80.290,78.044 80.562,78.916 80.701 C 79.109 80.732,79.373 81.016,79.541 81.374 C 79.750 81.817,80.065 82.112,80.643 82.404 C 81.196 82.685,81.520 82.980,81.669 83.339 C 81.797 83.648,82.113 83.972,82.438 84.127 C 82.778 84.289,83.090 84.618,83.252 84.987 C 83.701 86.002,83.766 86.078,84.349 86.270 C 84.842 86.433,84.944 86.565,85.121 87.270 C 85.343 88.155,85.819 88.667,86.421 88.667 C 86.780 88.667,86.812 88.751,86.908 89.958 C 87.191 93.516,87.591 94.904,88.493 95.460 C 88.713 95.595,88.833 95.846,88.833 96.168 L 88.833 96.667 54.625 96.625 L 20.417 96.583 20.375 66.292 L 20.332 36.000 54.583 36.000 L 88.833 36.000 88.833 36.520 M168.333 48.291 C 167.578 48.419,167.650 48.600,168.570 48.890 C 172.437 50.110,173.145 54.103,169.595 54.676 C 168.392 54.870,167.112 55.480,167.877 55.494 C 168.039 55.498,168.317 55.591,168.496 55.703 C 168.750 55.862,168.940 55.862,169.380 55.703 C 169.688 55.591,170.123 55.498,170.345 55.496 C 170.981 55.491,172.063 54.926,172.284 54.485 C 173.221 52.612,173.463 51.649,173.077 51.328 C 172.936 51.211,172.559 50.647,172.238 50.073 C 171.571 48.880,171.151 48.548,170.137 48.410 C 169.741 48.356,169.267 48.292,169.083 48.266 C 168.900 48.241,168.563 48.252,168.333 48.291 M109.333 50.099 C 109.013 50.137,108.412 50.218,108.000 50.278 L 107.250 50.389 107.917 50.534 C 108.283 50.614,110.308 50.703,112.417 50.731 C 116.679 50.789,117.741 50.972,118.708 51.815 C 119.006 52.076,119.582 52.457,119.988 52.663 C 121.285 53.321,122.591 54.884,123.096 56.384 L 123.533 57.684 123.097 58.342 C 122.858 58.704,122.586 59.000,122.494 59.000 C 122.401 59.000,122.254 59.188,122.167 59.417 C 122.021 59.799,121.922 59.834,120.962 59.839 C 120.387 59.842,119.729 59.949,119.500 60.077 L 119.083 60.308 119.553 60.487 C 120.653 60.908,123.841 60.568,124.443 59.966 C 125.266 59.143,125.223 56.920,124.366 56.053 C 124.112 55.794,123.768 55.225,123.603 54.787 C 123.196 53.710,121.976 52.492,120.827 52.017 C 120.228 51.769,119.809 51.469,119.633 51.161 C 119.157 50.333,118.136 50.146,113.750 50.084 C 111.642 50.055,109.654 50.061,109.333 50.099 M330.583 50.111 C 330.217 50.141,329.504 50.216,329.000 50.279 L 328.083 50.393 328.833 50.534 C 329.246 50.612,331.233 50.702,333.250 50.734 C 337.529 50.801,338.527 50.962,339.516 51.744 C 339.904 52.051,340.742 52.512,341.378 52.768 C 342.210 53.103,342.656 53.399,342.971 53.825 C 343.212 54.150,343.714 54.764,344.088 55.189 C 346.149 57.535,346.662 60.023,345.255 60.853 C 344.948 61.034,344.655 61.291,344.603 61.424 C 344.537 61.598,344.235 61.667,343.540 61.667 C 342.406 61.667,341.032 62.214,341.710 62.395 C 342.383 62.576,346.133 62.508,346.573 62.308 C 347.874 61.715,348.028 58.636,346.825 57.266 C 346.569 56.974,346.117 56.228,345.821 55.609 C 345.457 54.847,345.129 54.403,344.807 54.236 C 344.546 54.101,344.140 53.688,343.907 53.318 C 343.585 52.807,343.229 52.531,342.434 52.174 C 341.858 51.916,341.186 51.504,340.941 51.260 C 339.891 50.209,335.425 49.714,330.583 50.111 M362.250 50.110 C 361.883 50.140,361.096 50.215,360.500 50.277 L 359.417 50.390 360.083 50.532 C 360.450 50.611,362.512 50.705,364.667 50.740 C 369.145 50.815,369.869 50.935,371.083 51.805 C 371.565 52.150,372.391 52.579,372.919 52.758 C 373.636 53.001,374.024 53.261,374.452 53.783 C 374.767 54.167,375.284 54.635,375.601 54.822 C 375.980 55.045,376.289 55.425,376.508 55.936 C 376.691 56.362,377.065 56.995,377.339 57.341 C 378.090 58.289,378.280 58.879,378.916 62.236 C 379.608 65.888,379.627 66.613,379.100 69.343 C 378.880 70.483,378.650 71.754,378.590 72.167 C 378.435 73.218,378.200 73.791,377.532 74.743 C 377.213 75.197,376.779 75.959,376.568 76.436 C 376.327 76.981,375.949 77.476,375.550 77.769 C 375.202 78.026,374.617 78.549,374.250 78.932 C 373.859 79.339,373.254 79.745,372.789 79.912 C 372.352 80.068,371.639 80.440,371.205 80.738 C 369.730 81.751,369.897 81.721,364.917 81.870 C 362.350 81.947,360.025 82.013,359.750 82.017 C 358.410 82.037,360.243 82.356,362.678 82.526 C 367.806 82.885,372.048 82.323,372.646 81.205 C 372.742 81.026,373.067 80.788,373.369 80.677 C 374.517 80.254,374.983 79.944,375.178 79.471 C 375.293 79.194,375.642 78.849,375.982 78.676 C 376.695 78.312,377.081 77.904,377.252 77.333 C 377.321 77.104,377.659 76.654,378.003 76.333 C 378.498 75.871,378.719 75.456,379.067 74.333 C 379.308 73.554,379.697 72.531,379.930 72.060 C 381.138 69.623,381.168 63.160,379.982 60.708 C 379.705 60.134,379.330 59.131,379.150 58.479 C 378.738 56.994,378.439 56.410,377.912 56.065 C 377.684 55.916,377.355 55.470,377.180 55.074 C 376.947 54.547,376.677 54.260,376.173 54.003 C 375.794 53.810,375.439 53.524,375.384 53.367 C 375.195 52.832,374.605 52.330,373.960 52.156 C 373.605 52.060,373.029 51.724,372.680 51.409 C 371.330 50.190,367.359 49.695,362.250 50.110 M155.851 50.276 C 155.380 50.481,156.716 50.833,157.977 50.836 C 158.989 50.838,159.387 50.916,159.917 51.216 L 160.583 51.594 160.626 66.283 L 160.668 80.972 160.049 81.354 C 159.571 81.650,159.069 81.763,157.840 81.852 C 156.966 81.916,156.063 82.028,155.833 82.103 L 155.417 82.237 155.917 82.349 C 157.809 82.772,161.142 82.339,161.789 81.587 L 162.167 81.148 162.167 66.361 C 162.167 50.040,162.240 51.147,161.115 50.549 C 160.572 50.261,156.384 50.043,155.851 50.276 M193.583 50.394 L 193.083 50.619 193.833 50.624 C 195.869 50.637,198.160 50.942,198.494 51.244 C 198.831 51.549,198.833 51.671,198.833 66.355 L 198.833 81.159 198.451 81.410 C 198.084 81.650,195.087 82.046,193.833 82.019 C 193.305 82.008,193.282 82.026,193.583 82.210 C 194.174 82.571,198.135 82.576,198.831 82.217 C 199.877 81.677,199.828 82.455,199.831 66.211 L 199.833 51.339 199.347 50.794 L 198.862 50.250 196.472 50.210 C 194.749 50.180,193.944 50.232,193.583 50.394 M204.883 50.293 C 204.494 50.553,205.571 50.801,207.429 50.879 C 209.168 50.953,209.920 51.139,210.206 51.567 C 210.273 51.667,210.329 53.976,210.331 56.696 C 210.334 62.243,210.442 63.115,211.211 63.762 L 211.692 64.167 216.674 64.167 C 222.151 64.167,222.000 64.196,222.000 63.136 L 222.000 62.750 217.708 62.801 C 212.046 62.869,211.728 62.830,211.506 62.030 C 211.407 61.675,211.335 59.297,211.334 56.378 L 211.333 51.339 210.847 50.794 L 210.361 50.250 207.722 50.205 C 206.271 50.180,204.993 50.219,204.883 50.293 M224.500 50.355 C 223.684 50.682,224.596 50.866,226.911 50.843 C 229.074 50.822,229.139 50.831,229.647 51.259 L 230.167 51.696 230.167 66.319 L 230.167 80.942 229.745 81.338 C 229.346 81.713,229.190 81.737,226.880 81.782 C 223.082 81.856,223.441 82.500,227.280 82.500 C 229.520 82.500,230.259 82.317,230.728 81.647 C 231.046 81.194,231.153 51.925,230.840 51.102 C 230.513 50.240,226.088 49.719,224.500 50.355 M284.863 50.281 C 284.359 50.483,285.581 50.833,286.788 50.833 C 287.764 50.833,288.180 50.913,288.686 51.197 L 289.333 51.561 289.334 55.489 C 289.335 58.918,289.487 61.210,289.731 61.453 C 290.132 61.854,291.402 60.036,291.162 59.404 C 291.073 59.170,291.000 57.306,291.000 55.262 C 291.000 50.949,290.975 50.870,289.461 50.420 C 288.637 50.176,285.374 50.077,284.863 50.281 M110.333 56.071 C 108.499 56.713,107.881 57.096,107.695 57.704 C 106.941 60.171,107.808 61.791,110.279 62.533 C 110.900 62.719,111.901 63.123,112.503 63.430 C 113.345 63.859,114.087 64.067,115.700 64.325 C 118.145 64.718,118.365 64.790,119.241 65.490 C 119.602 65.778,120.339 66.250,120.879 66.538 C 123.698 68.040,125.520 73.458,123.981 75.764 C 123.742 76.123,123.279 76.904,122.953 77.500 C 122.247 78.790,121.751 79.281,120.417 80.009 C 119.867 80.308,119.229 80.724,119.000 80.933 C 118.197 81.664,117.814 81.714,112.083 81.842 C 105.881 81.981,106.318 81.953,106.718 82.186 C 106.884 82.282,108.318 82.438,109.904 82.532 C 115.638 82.871,120.146 82.330,120.560 81.252 C 120.610 81.120,121.161 80.753,121.784 80.437 C 122.793 79.925,122.969 79.760,123.399 78.924 C 123.664 78.408,124.028 77.908,124.207 77.812 C 125.850 76.933,125.998 69.911,124.403 68.511 C 124.086 68.232,123.618 67.646,123.363 67.210 C 123.010 66.604,122.666 66.291,121.909 65.886 C 121.363 65.595,120.712 65.166,120.462 64.934 C 119.708 64.234,119.105 64.014,117.219 63.750 C 116.058 63.588,115.268 63.389,115.000 63.192 C 114.200 62.603,113.570 62.364,112.082 62.088 C 111.258 61.935,110.411 61.775,110.200 61.733 C 109.934 61.680,109.714 61.416,109.480 60.870 C 109.295 60.437,109.029 59.958,108.891 59.805 C 108.525 59.401,109.191 57.578,109.817 57.268 C 110.584 56.887,112.501 56.667,113.750 56.814 C 115.263 56.994,115.271 56.948,113.806 56.503 C 113.140 56.301,112.444 56.030,112.260 55.901 C 111.828 55.598,111.635 55.615,110.333 56.071 M331.750 56.300 C 327.328 56.738,324.916 61.677,325.664 68.762 C 326.024 72.178,327.622 74.806,330.000 75.896 C 331.319 76.501,336.459 76.282,336.717 75.610 C 336.778 75.449,336.494 75.435,335.440 75.544 C 332.873 75.809,330.348 75.448,330.040 74.770 C 329.940 74.551,329.534 74.155,329.137 73.889 C 328.593 73.525,328.355 73.221,328.167 72.651 C 328.029 72.235,327.674 71.533,327.378 71.090 C 326.656 70.012,326.585 69.567,326.585 66.167 C 326.584 63.065,326.548 63.246,327.539 61.499 C 327.773 61.086,328.049 60.449,328.152 60.082 C 328.379 59.272,328.608 58.975,329.213 58.708 C 329.468 58.595,329.832 58.239,330.022 57.917 C 330.477 57.146,330.758 57.087,333.958 57.085 C 335.448 57.084,336.667 57.032,336.667 56.970 C 336.667 56.665,333.043 56.171,331.750 56.300 M362.583 56.396 C 360.867 56.752,359.543 57.817,358.597 59.603 C 358.360 60.050,358.011 60.610,357.822 60.846 C 357.303 61.495,357.159 62.324,357.051 65.294 C 356.908 69.257,357.191 71.118,358.104 72.216 C 358.317 72.473,358.623 72.960,358.784 73.298 C 360.055 75.977,363.596 77.010,367.693 75.896 C 368.726 75.615,368.009 75.419,366.439 75.554 C 363.757 75.785,361.980 75.474,361.471 74.686 C 361.256 74.355,360.808 73.937,360.474 73.758 C 359.919 73.460,359.821 73.290,359.319 71.758 C 359.018 70.837,358.583 69.708,358.352 69.250 C 357.843 68.239,357.711 64.616,358.155 63.833 C 358.438 63.332,359.283 61.042,359.565 60.006 C 359.730 59.404,359.891 59.198,360.412 58.923 C 360.798 58.720,361.184 58.335,361.375 57.963 C 361.786 57.164,362.166 57.083,365.528 57.083 C 367.533 57.083,368.100 57.037,367.973 56.884 C 367.571 56.399,364.088 56.084,362.583 56.396 M135.950 57.992 C 135.235 58.067,134.615 58.163,134.572 58.206 C 134.437 58.341,136.638 58.507,139.500 58.578 C 142.673 58.656,143.313 58.781,144.145 59.487 C 144.478 59.770,145.087 60.180,145.500 60.399 C 146.431 60.894,148.000 62.518,148.502 63.507 C 148.709 63.916,149.051 64.456,149.261 64.707 C 150.695 66.422,150.593 73.836,149.105 76.104 C 148.727 76.681,148.192 77.510,147.917 77.946 C 147.459 78.672,146.473 79.566,145.192 80.417 C 144.916 80.600,144.382 80.968,144.005 81.235 L 143.320 81.720 138.912 81.830 C 134.844 81.932,134.113 82.002,134.373 82.262 C 134.645 82.534,139.088 82.710,141.514 82.544 C 144.323 82.353,145.247 82.099,145.884 81.342 C 146.094 81.092,146.713 80.627,147.258 80.310 C 147.989 79.884,148.359 79.533,148.667 78.974 C 148.896 78.557,149.336 77.929,149.646 77.579 C 151.819 75.115,151.909 65.353,149.780 63.144 C 149.483 62.835,149.061 62.283,148.843 61.917 C 148.251 60.923,147.854 60.535,146.837 59.962 C 146.331 59.676,145.641 59.198,145.303 58.899 C 144.295 58.005,139.897 57.579,135.950 57.992 M183.833 57.930 C 183.604 57.971,183.079 58.055,182.667 58.117 L 181.917 58.230 182.833 58.357 C 183.338 58.427,184.779 58.516,186.036 58.556 C 188.266 58.627,189.832 59.071,189.834 59.632 C 189.834 59.697,190.171 59.963,190.583 60.224 C 190.996 60.484,191.518 60.933,191.743 61.222 C 192.058 61.624,192.200 61.700,192.350 61.550 C 192.501 61.399,192.444 61.232,192.107 60.831 C 191.865 60.543,191.667 60.120,191.667 59.891 C 191.667 58.485,187.111 57.345,183.833 57.930 M242.417 57.931 C 242.142 57.970,241.579 58.053,241.167 58.114 L 240.417 58.225 241.167 58.362 C 241.579 58.437,243.492 58.524,245.417 58.554 C 249.318 58.614,249.658 58.693,251.230 59.893 C 251.668 60.227,252.122 60.500,252.240 60.500 C 252.626 60.500,253.368 61.210,253.620 61.820 C 253.755 62.148,254.056 62.668,254.288 62.975 C 255.137 64.101,255.167 64.439,255.164 72.985 C 255.163 77.347,255.105 81.006,255.036 81.115 C 254.771 81.530,253.845 81.719,251.853 81.764 C 248.396 81.841,249.002 82.500,252.530 82.500 C 256.462 82.500,256.195 83.257,256.133 72.308 C 256.078 62.524,256.074 62.485,255.049 61.889 C 254.793 61.740,254.433 61.310,254.250 60.934 C 254.009 60.440,253.715 60.153,253.192 59.902 C 252.794 59.711,252.283 59.319,252.058 59.031 C 251.384 58.170,250.443 57.984,246.417 57.918 C 244.492 57.886,242.692 57.892,242.417 57.931 M266.750 57.918 C 266.567 57.953,265.892 58.037,265.250 58.104 L 264.083 58.226 264.833 58.365 C 265.246 58.442,267.158 58.530,269.083 58.561 C 272.986 58.625,273.964 58.787,274.782 59.506 C 275.090 59.777,275.637 60.148,275.997 60.332 C 276.357 60.516,276.861 60.937,277.118 61.267 C 277.374 61.598,277.827 62.134,278.125 62.458 C 279.096 63.514,278.654 64.247,276.744 64.748 C 276.106 64.915,275.471 65.184,275.333 65.344 C 275.196 65.504,274.821 65.792,274.500 65.984 L 273.917 66.332 275.354 66.333 C 280.206 66.335,281.274 61.927,276.954 59.731 C 276.658 59.581,276.189 59.213,275.910 58.913 C 275.632 58.614,275.107 58.284,274.744 58.181 C 274.114 58.003,267.447 57.783,266.750 57.918 M294.875 57.955 C 292.965 58.127,294.462 58.485,297.469 58.575 C 300.068 58.652,300.466 58.799,302.238 60.333 C 304.717 62.479,304.917 63.489,304.917 73.911 L 304.917 81.073 304.250 81.450 C 303.725 81.748,303.318 81.829,302.333 81.833 C 301.646 81.836,300.795 81.939,300.443 82.061 L 299.804 82.284 300.592 82.392 C 302.841 82.700,305.186 82.409,306.005 81.720 L 306.500 81.304 306.500 73.762 C 306.500 65.857,306.363 64.245,305.613 63.346 C 305.493 63.201,305.186 62.537,304.931 61.870 C 304.626 61.074,304.318 60.559,304.033 60.370 C 303.794 60.212,303.258 59.737,302.841 59.313 C 301.524 57.975,299.151 57.570,294.875 57.955 M166.361 58.146 C 166.092 58.316,167.068 58.476,169.358 58.637 C 171.933 58.818,171.667 57.474,171.667 70.272 L 171.667 81.159 171.216 81.454 C 170.795 81.731,168.317 82.023,166.500 82.011 C 164.822 81.999,166.764 82.416,168.653 82.473 C 171.134 82.548,171.793 82.388,172.491 81.541 L 173.000 80.924 173.000 70.201 L 173.000 59.478 172.573 58.918 C 172.339 58.611,171.915 58.278,171.632 58.179 C 171.026 57.968,166.685 57.941,166.361 58.146 M243.829 62.721 C 243.506 62.839,242.801 63.294,242.263 63.732 C 241.187 64.608,240.886 64.763,239.960 64.913 C 239.601 64.972,239.267 65.145,239.172 65.324 C 239.051 65.550,238.727 65.666,237.975 65.753 C 236.847 65.884,236.909 66.033,238.213 66.325 C 239.705 66.659,240.966 66.383,241.827 65.532 C 242.243 65.122,242.891 64.655,243.266 64.493 C 243.642 64.332,244.114 63.991,244.315 63.736 C 244.628 63.338,244.785 63.277,245.421 63.310 C 246.129 63.347,246.155 63.332,246.021 62.966 C 245.850 62.502,244.764 62.380,243.829 62.721 M267.538 62.777 C 266.568 63.254,265.541 64.842,265.758 65.526 C 265.813 65.699,266.247 66.128,266.721 66.479 C 267.196 66.829,267.687 67.241,267.814 67.393 C 268.167 67.818,269.535 68.136,271.917 68.345 C 274.022 68.530,274.739 68.730,275.384 69.312 C 275.550 69.461,276.300 69.883,277.051 70.250 C 278.616 71.014,279.096 71.801,279.327 73.988 C 279.639 76.939,278.733 78.669,275.983 80.370 C 275.580 80.620,275.048 80.987,274.802 81.187 C 274.166 81.702,273.214 81.812,269.300 81.823 C 267.287 81.829,265.482 81.916,264.967 82.031 L 264.083 82.228 264.750 82.350 C 268.934 83.111,275.930 82.477,276.725 81.265 C 276.857 81.064,277.431 80.650,278.001 80.346 C 278.959 79.836,279.080 79.705,279.614 78.605 C 279.932 77.952,280.348 77.123,280.540 76.764 C 281.194 75.535,281.132 73.380,280.417 72.531 C 280.200 72.273,279.893 71.729,279.735 71.322 C 279.354 70.337,278.955 69.923,278.158 69.684 C 277.793 69.574,277.262 69.230,276.979 68.919 C 276.274 68.144,275.294 67.851,272.764 67.657 C 271.579 67.566,270.446 67.400,270.244 67.287 C 270.042 67.175,269.548 66.905,269.147 66.686 C 268.745 66.468,268.135 66.067,267.791 65.796 L 267.165 65.304 267.505 64.826 C 267.692 64.563,267.924 64.124,268.019 63.849 C 268.184 63.378,268.256 63.345,269.356 63.236 C 270.273 63.146,270.499 63.071,270.426 62.881 C 270.375 62.748,270.333 62.608,270.333 62.570 C 270.333 62.367,268.020 62.539,267.538 62.777 M138.190 62.846 C 137.494 62.983,137.311 63.114,135.318 64.913 C 134.205 65.917,133.773 71.716,134.628 74.167 C 135.203 75.814,137.068 77.485,138.524 77.657 C 139.366 77.756,139.546 77.733,139.613 77.513 C 139.682 77.289,139.860 76.869,140.139 76.275 C 140.175 76.198,140.051 76.217,139.863 76.318 C 139.067 76.744,137.023 75.801,136.284 74.667 C 136.135 74.438,135.854 74.056,135.660 73.818 C 135.226 73.286,135.009 69.647,135.301 67.792 C 135.482 66.639,135.579 66.480,136.957 65.075 C 137.528 64.494,139.118 63.905,139.703 64.058 C 139.877 64.103,139.992 64.090,139.959 64.029 C 139.926 63.967,139.771 63.635,139.614 63.292 C 139.311 62.627,139.308 62.626,138.190 62.846 M186.204 63.678 C 183.411 65.110,183.081 65.814,183.086 70.333 C 183.090 74.535,184.030 76.265,186.876 77.313 C 187.924 77.699,188.127 77.684,188.314 77.207 C 188.412 76.956,188.624 76.570,188.784 76.349 C 189.072 75.953,189.071 75.950,188.703 76.147 C 188.407 76.306,188.179 76.294,187.577 76.090 C 187.161 75.949,186.735 75.833,186.629 75.833 C 186.326 75.833,185.336 75.105,185.334 74.881 C 185.334 74.769,185.094 74.406,184.801 74.072 C 183.750 72.875,183.675 67.399,184.697 66.452 C 184.934 66.232,185.177 65.897,185.237 65.708 C 185.456 65.017,188.040 63.998,188.690 64.346 C 189.225 64.632,189.167 64.503,188.425 63.750 C 187.539 62.851,187.800 62.859,186.204 63.678 M293.333 63.750 C 293.104 63.881,292.654 64.076,292.333 64.184 C 290.260 64.879,290.167 65.301,290.167 74.012 C 290.167 79.368,290.119 80.998,289.958 81.129 C 289.528 81.480,287.896 81.834,286.678 81.839 C 285.958 81.843,285.247 81.939,285.021 82.064 L 284.626 82.284 285.167 82.392 C 287.089 82.776,290.214 82.419,290.792 81.749 L 291.167 81.315 291.174 74.282 C 291.183 65.861,291.182 65.868,292.667 65.124 C 293.466 64.724,293.749 64.670,294.875 64.707 C 296.391 64.757,296.377 64.767,295.425 64.320 C 295.017 64.128,294.596 63.865,294.488 63.736 C 294.242 63.440,293.868 63.444,293.333 63.750 M242.750 67.689 C 239.403 67.875,238.585 68.061,240.417 68.220 C 241.150 68.284,241.862 68.347,242.000 68.361 C 243.682 68.528,245.846 68.306,246.282 67.922 L 246.750 67.511 246.000 67.531 C 245.588 67.542,244.125 67.613,242.750 67.689 M108.667 68.381 L 107.750 68.556 108.417 68.673 C 110.171 68.981,111.333 69.016,111.333 68.761 C 111.333 68.185,110.396 68.051,108.667 68.381 M211.194 68.835 C 210.463 69.445,210.337 70.484,210.335 75.933 C 210.333 81.994,210.443 81.820,206.594 81.839 C 205.944 81.843,205.240 81.943,205.021 82.064 L 204.626 82.284 205.167 82.392 C 206.368 82.632,209.724 82.513,210.331 82.208 C 211.308 81.718,211.328 81.592,211.331 76.067 C 211.334 69.093,210.796 69.610,217.962 69.700 C 222.267 69.753,222.160 69.775,221.837 68.928 L 221.675 68.500 216.629 68.506 C 211.879 68.511,211.561 68.530,211.194 68.835 M341.870 70.960 L 341.324 71.264 341.822 71.632 C 342.219 71.925,342.546 72.000,343.432 72.000 C 344.672 72.000,345.573 72.219,346.161 72.663 L 346.553 72.958 345.625 74.854 C 344.446 77.261,342.738 79.142,340.988 79.960 C 340.386 80.241,339.657 80.670,339.369 80.912 C 338.499 81.644,335.216 81.975,328.417 82.018 C 326.909 82.027,328.600 82.344,331.065 82.514 C 335.963 82.851,339.673 82.430,340.716 81.417 C 341.045 81.097,341.712 80.680,342.199 80.489 C 343.154 80.114,343.769 79.632,343.927 79.134 C 343.982 78.962,344.327 78.631,344.694 78.399 C 345.183 78.091,345.472 77.727,345.777 77.038 C 346.006 76.520,346.422 75.837,346.701 75.519 C 347.977 74.065,347.983 72.104,346.713 71.200 C 345.984 70.681,342.668 70.516,341.870 70.960 M101.958 71.612 C 100.554 71.781,101.681 72.333,103.430 72.333 C 105.378 72.333,106.192 72.860,107.253 74.809 C 107.769 75.757,108.046 75.923,110.212 76.579 L 111.674 77.022 112.212 76.692 C 112.508 76.510,113.237 76.236,113.833 76.082 C 114.429 75.929,114.929 75.792,114.944 75.777 C 114.960 75.762,114.022 75.750,112.861 75.750 C 109.427 75.750,108.533 75.374,107.848 73.643 C 107.423 72.569,106.953 72.059,106.186 71.839 C 105.539 71.653,102.824 71.507,101.958 71.612 M246.310 71.746 C 246.266 71.789,245.485 71.904,244.574 72.000 C 242.091 72.263,241.430 72.681,240.441 74.614 C 240.064 75.351,240.891 77.034,241.920 77.622 C 242.788 78.118,245.207 78.120,245.302 77.625 C 245.351 77.368,245.208 77.333,244.105 77.333 C 242.722 77.333,242.774 77.369,242.225 76.032 L 241.863 75.148 242.340 74.095 C 242.895 72.872,242.856 72.888,245.542 72.725 C 247.367 72.615,247.475 72.564,247.232 71.930 C 247.139 71.689,246.496 71.560,246.310 71.746 M265.167 72.261 C 264.571 72.372,264.196 72.474,264.333 72.485 C 264.471 72.497,265.593 72.614,266.827 72.746 C 269.361 73.016,269.466 73.003,268.467 72.537 C 267.524 72.097,266.496 72.011,265.167 72.261 M260.014 74.292 C 259.668 74.576,259.693 74.584,260.954 74.626 C 261.939 74.659,262.358 74.749,262.702 75.001 C 262.950 75.184,263.408 75.333,263.719 75.333 C 264.145 75.333,264.548 75.539,265.351 76.168 C 267.509 77.858,267.608 77.907,268.973 77.976 C 270.035 78.030,270.259 77.994,270.446 77.738 C 270.748 77.326,270.723 77.109,270.389 77.237 C 269.627 77.530,268.138 77.137,267.793 76.552 C 267.609 76.241,267.149 75.829,266.771 75.638 C 266.393 75.447,265.766 75.000,265.379 74.645 L 264.674 74.000 262.522 74.000 C 260.719 74.000,260.312 74.047,260.014 74.292 M191.657 79.427 C 191.436 79.662,190.992 80.011,190.670 80.203 C 190.347 80.395,189.858 80.761,189.583 81.016 C 188.832 81.712,188.329 81.833,186.184 81.833 C 184.424 81.833,182.210 82.099,182.398 82.287 C 182.576 82.465,186.550 82.617,187.931 82.499 C 190.170 82.307,191.667 81.543,191.667 80.592 C 191.667 80.367,191.853 79.983,192.080 79.738 C 192.458 79.330,192.506 79.000,192.186 79.000 C 192.116 79.000,191.878 79.192,191.657 79.427 M247.250 80.449 C 246.975 80.591,246.599 80.844,246.414 81.012 C 245.684 81.676,244.939 81.833,242.464 81.844 C 241.154 81.850,239.633 81.950,239.083 82.066 L 238.083 82.277 238.750 82.382 C 242.015 82.894,246.852 82.532,247.804 81.704 C 248.097 81.450,248.112 81.347,247.942 80.804 L 247.750 80.191 247.250 80.449 " stroke="none" fill="#8db5e4" fill-rule="evenodd"></path></g></svg>